<svg version="1.1" viewBox="0.0 0.0 249.20997375328085 241.56692913385828" fill="none" stroke="none" stroke-linecap="square" stroke-miterlimit="10" xmlns:xlink="http://www.w3.org/1999/xlink" xmlns="http://www.w3.org/2000/svg"><clipPath id="p.0"><path d="m0 0l249.20998 0l0 241.56693l-249.20998 0l0 -241.56693z" clip-rule="nonzero"/></clipPath><g clip-path="url(#p.0)"><path fill="#000000" fill-opacity="0.0" d="m0 0l249.20998 0l0 241.56693l-249.20998 0z" fill-rule="evenodd"/><path fill="#434343" d="m167.71391 25.4042l0 0c0 -9.828059 8.058868 -17.795277 18.0 -17.795277l0 0c4.7738953 0 9.352264 1.8748541 12.727921 5.2121153c3.3756561 3.3372612 5.2720795 7.8635597 5.2720795 12.58316l0 0c0 9.828058 -8.058884 17.795275 -18.0 17.795275l0 0c-9.941132 0 -18.0 -7.9672165 -18.0 -17.795275z" fill-rule="evenodd"/><path stroke="#434343" stroke-width="1.0" stroke-linejoin="round" stroke-linecap="butt" d="m167.71391 25.4042l0 0c0 -9.828059 8.058868 -17.795277 18.0 -17.795277l0 0c4.7738953 0 9.352264 1.8748541 12.727921 5.2121153c3.3756561 3.3372612 5.2720795 7.8635597 5.2720795 12.58316l0 0c0 9.828058 -8.058884 17.795275 -18.0 17.795275l0 0c-9.941132 0 -18.0 -7.9672165 -18.0 -17.795275z" fill-rule="evenodd"/><path fill="#434343" d="m6.6272964 124.45145l0 0c0 -9.828064 8.058875 -17.79528 18.0 -17.79528l0 0c4.773897 0 9.352268 1.874855 12.727921 5.21212c3.3756561 3.3372574 5.2720795 7.863556 5.2720795 12.58316l0 0c0 9.828064 -8.058876 17.795273 -18.0 17.795273l0 0c-9.941125 0 -18.0 -7.967209 -18.0 -17.795273z" fill-rule="evenodd"/><path stroke="#434343" stroke-width="1.0" stroke-linejoin="round" stroke-linecap="butt" d="m6.6272964 124.45145l0 0c0 -9.828064 8.058875 -17.79528 18.0 -17.79528l0 0c4.773897 0 9.352268 1.874855 12.727921 5.21212c3.3756561 3.3372574 5.2720795 7.863556 5.2720795 12.58316l0 0c0 9.828064 -8.058876 17.795273 -18.0 17.795273l0 0c-9.941125 0 -18.0 -7.967209 -18.0 -17.795273z" fill-rule="evenodd"/><path fill="#434343" d="m22.496063 120.04366l211.30708 -0.15748596l0 8.976387l-211.30708 0.1574707z" fill-rule="evenodd"/><path stroke="#434343" stroke-width="3.0" stroke-linejoin="round" stroke-linecap="butt" d="m22.496063 120.04366l211.30708 -0.15748596l0 8.976387l-211.30708 0.1574707z" fill-rule="evenodd"/><path fill="#000000" fill-opacity="0.0" d="m22.49608 119.88698c14.959467 -14.536003 64.045395 -71.08953 89.756805 -87.216c25.71141 -16.126472 53.759705 -7.9523563 64.51164 -9.542828" fill-rule="evenodd"/><path stroke="#434343" stroke-width="8.0" stroke-linejoin="round" stroke-linecap="butt" d="m22.49608 119.88698c14.959467 -14.536003 64.045395 -71.08953 89.756805 -87.216c25.71141 -16.126472 53.759705 -7.9523563 64.51164 -9.542828" fill-rule="evenodd"/><path fill="#000000" fill-opacity="0.0" d="m20.062994 131.2665c16.977335 13.463455 72.6844 65.84421 101.864 80.78079c29.179588 14.936584 61.0113 7.3656006 73.213554 8.838715" fill-rule="evenodd"/><path stroke="#434343" stroke-width="8.0" stroke-linejoin="round" stroke-linecap="butt" d="m20.062994 131.2665c16.977335 13.463455 72.6844 65.84421 101.864 80.78079c29.179588 14.936584 61.0113 7.3656006 73.213554 8.838715" fill-rule="evenodd"/><path fill="#434343" d="m209.19948 121.7126l0 0c0 -9.828064 8.058868 -17.79528 18.0 -17.79528l0 0c4.7738953 0 9.352264 1.874855 12.727921 5.21212c3.3756561 3.3372574 5.2720795 7.863556 5.2720795 12.58316l0 0c0 9.828064 -8.058884 17.795273 -18.0 17.795273l0 0c-9.941132 0 -18.0 -7.967209 -18.0 -17.795273z" fill-rule="evenodd"/><path stroke="#434343" stroke-width="1.0" stroke-linejoin="round" stroke-linecap="butt" d="m209.19948 121.7126l0 0c0 -9.828064 8.058868 -17.79528 18.0 -17.79528l0 0c4.7738953 0 9.352264 1.874855 12.727921 5.21212c3.3756561 3.3372574 5.2720795 7.863556 5.2720795 12.58316l0 0c0 9.828064 -8.058884 17.795273 -18.0 17.795273l0 0c-9.941132 0 -18.0 -7.967209 -18.0 -17.795273z" fill-rule="evenodd"/><path fill="#434343" d="m186.82939 218.02362l0 0c0 -9.828064 8.058884 -17.795273 18.0 -17.795273l0 0c4.7738953 0 9.35228 1.8748474 12.727921 5.2121124c3.3756561 3.337265 5.2720795 7.863556 5.2720795 12.58316l0 0c0 9.828064 -8.058868 17.795273 -18.0 17.795273l0 0c-9.941116 0 -18.0 -7.967209 -18.0 -17.795273z" fill-rule="evenodd"/><path stroke="#434343" stroke-width="1.0" stroke-linejoin="round" stroke-linecap="butt" d="m186.82939 218.02362l0 0c0 -9.828064 8.058884 -17.795273 18.0 -17.795273l0 0c4.7738953 0 9.35228 1.8748474 12.727921 5.2121124c3.3756561 3.337265 5.2720795 7.863556 5.2720795 12.58316l0 0c0 9.828064 -8.058868 17.795273 -18.0 17.795273l0 0c-9.941116 0 -18.0 -7.967209 -18.0 -17.795273z" fill-rule="evenodd"/><path fill="#ffe599" d="m55.80315 49.262466l46.740154 0l0 44.944885l-46.740154 0z" fill-rule="evenodd"/><path stroke="#000000" stroke-width="2.0" stroke-linejoin="round" stroke-linecap="butt" d="m55.80315 49.262466l46.740154 0l0 44.944885l-46.740154 0z" fill-rule="evenodd"/><path fill="#000000" d="m86.56877 86.13491q-0.453125 -1.4375 -1.0 -2.953125q-0.53125 -1.53125 -1.046875 -3.046875l-10.796875 0q-0.515625 1.515625 -1.0625 3.046875q-0.546875 1.515625 -0.984375 2.953125l-6.46875 0q1.546875 -4.484375 2.953125 -8.28125q1.40625 -3.796875 2.734375 -7.15625q1.34375 -3.359375 2.640625 -6.375q1.3125 -3.0312538 2.703125 -5.906254l5.96875 0q1.359375 2.875 2.671875 5.906254q1.328125 3.015625 2.65625 6.375q1.34375 3.359375 2.734375 7.15625q1.40625 3.796875 2.96875 8.28125l-6.671875 0zm-7.484375 -21.4375q-0.203125 0.59375 -0.609375 1.640625q-0.390625 1.03125 -0.921875 2.390625q-0.515625 1.359375 -1.140625 3.0q-0.609375 1.640625 -1.25 3.453125l7.875 0q-0.640625 -1.8125 -1.234375 -3.453125q-0.59375 -1.640625 -1.140625 -3.0q-0.546875 -1.359375 -0.953125 -2.390625q-0.390625 -1.046875 -0.625 -1.640625z" fill-rule="nonzero"/><path fill="#9fc5e8" d="m102.543304 49.262466l46.740158 0l0 44.944885l-46.740158 0z" fill-rule="evenodd"/><path stroke="#000000" stroke-width="2.0" stroke-linejoin="round" stroke-linecap="butt" d="m102.543304 49.262466l46.740158 0l0 44.944885l-46.740158 0z" fill-rule="evenodd"/><path fill="#000000" d="m128.59215 63.21303q-4.359375 0 -6.296875 2.4218788q-1.9375 2.421875 -1.9375 6.625q0 2.03125 0.46875 3.703125q0.484375 1.65625 1.4375 2.859375q0.96875 1.1875 2.40625 1.859375q1.4375 0.65625 3.359375 0.65625q1.046875 0 1.78125 -0.03125q0.75 -0.046875 1.296875 -0.171875l0 -9.640625l6.25 0l0 13.71875q-1.125 0.4375 -3.609375 0.9375q-2.46875 0.5 -6.109375 0.5q-3.125 0 -5.671875 -0.953125q-2.53125 -0.96875 -4.34375 -2.796875q-1.796875 -1.84375 -2.78125 -4.515625q-0.96875 -2.6875 -0.96875 -6.125q0 -3.484375 1.078125 -6.15625q1.078125 -2.6875038 2.953125 -4.546879q1.890625 -1.859375 4.421875 -2.8125q2.546875 -0.96875 5.421875 -0.96875q1.96875 0 3.546875 0.265625q1.578125 0.25 2.71875 0.59375q1.140625 0.34375 1.875 0.703125q0.75 0.359375 1.0625 0.5625l-1.796875 5.000004q-1.28125 -0.6875 -2.9375 -1.1875038q-1.65625 -0.5 -3.625 -0.5z" fill-rule="nonzero"/><path fill="#f6b26b" d="m149.28346 49.262466l46.740158 0l0 44.944885l-46.740158 0z" fill-rule="evenodd"/><path stroke="#000000" stroke-width="2.0" stroke-linejoin="round" stroke-linecap="butt" d="m149.28346 49.262466l46.740158 0l0 44.944885l-46.740158 0z" fill-rule="evenodd"/><path fill="#000000" d="m184.13918 58.416157l0 5.3125l-8.359375 0l0 22.406254l-6.25 0l0 -22.406254l-8.359375 0l0 -5.3125l22.96875 0z" fill-rule="nonzero"/><path fill="#f6b26b" d="m55.80315 94.20735l46.740154 0l0 44.944885l-46.740154 0z" fill-rule="evenodd"/><path stroke="#000000" stroke-width="2.0" stroke-linejoin="round" stroke-linecap="butt" d="m55.80315 94.20735l46.740154 0l0 44.944885l-46.740154 0z" fill-rule="evenodd"/><path fill="#000000" d="m90.65886 103.36104l0 5.3125l-8.359375 0l0 22.40625l-6.25 0l0 -22.40625l-8.359375 0l0 -5.3125l22.96875 0z" fill-rule="nonzero"/><path fill="#ffe599" d="m102.543304 94.20735l46.740158 0l0 44.944885l-46.740158 0z" fill-rule="evenodd"/><path stroke="#000000" stroke-width="2.0" stroke-linejoin="round" stroke-linecap="butt" d="m102.543304 94.20735l46.740158 0l0 44.944885l-46.740158 0z" fill-rule="evenodd"/><path fill="#000000" d="m133.30893 131.07979q-0.453125 -1.4375 -1.0 -2.953125q-0.53125 -1.53125 -1.046875 -3.046875l-10.796875 0q-0.515625 1.515625 -1.0625 3.046875q-0.546875 1.515625 -0.984375 2.953125l-6.46875 0q1.546875 -4.484375 2.953125 -8.28125q1.40625 -3.796875 2.734375 -7.15625q1.34375 -3.359375 2.640625 -6.375q1.3125 -3.03125 2.703125 -5.90625l5.96875 0q1.359375 2.875 2.671875 5.90625q1.328125 3.015625 2.65625 6.375q1.34375 3.359375 2.734375 7.15625q1.40625 3.796875 2.96875 8.28125l-6.671875 0zm-7.484375 -21.4375q-0.203125 0.59375 -0.609375 1.640625q-0.390625 1.03125 -0.921875 2.390625q-0.515625 1.359375 -1.140625 3.0q-0.609375 1.640625 -1.25 3.453125l7.875 0q-0.640625 -1.8125 -1.234375 -3.453125q-0.59375 -1.640625 -1.140625 -3.0q-0.546875 -1.359375 -0.953125 -2.390625q-0.390625 -1.046875 -0.625 -1.640625z" fill-rule="nonzero"/><path fill="#b6d7a8" d="m149.28346 94.20735l46.740158 0l0 44.944885l-46.740158 0z" fill-rule="evenodd"/><path stroke="#000000" stroke-width="2.0" stroke-linejoin="round" stroke-linecap="butt" d="m149.28346 94.20735l46.740158 0l0 44.944885l-46.740158 0z" fill-rule="evenodd"/><path fill="#000000" d="m175.53731 131.64229q-6.765625 0 -10.3125 -3.75q-3.53125 -3.765625 -3.53125 -10.6875q0 -3.4375 1.078125 -6.140625q1.078125 -2.703125 2.953125 -4.5625q1.890625 -1.859375 4.484375 -2.8125q2.609375 -0.96875 5.640625 -0.96875q1.765625 0 3.203125 0.265625q1.4375 0.25 2.515625 0.59375q1.078125 0.34375 1.796875 0.703125q0.734375 0.359375 1.046875 0.5625l-1.796875 5.03125q-1.28125 -0.671875 -2.984375 -1.15625q-1.703125 -0.484375 -3.859375 -0.484375q-1.4375 0 -2.828125 0.484375q-1.375 0.484375 -2.4375 1.546875q-1.046875 1.046875 -1.6875 2.734375q-0.640625 1.671875 -0.640625 4.078125q0 1.921875 0.40625 3.578125q0.421875 1.65625 1.359375 2.859375q0.953125 1.203125 2.46875 1.90625q1.515625 0.703125 3.6875 0.703125q1.359375 0 2.4375 -0.15625q1.078125 -0.171875 1.90625 -0.390625q0.84375 -0.21875 1.484375 -0.5q0.640625 -0.28125 1.171875 -0.515625l1.71875 5.0q-1.328125 0.796875 -3.734375 1.4375q-2.390625 0.640625 -5.546875 0.640625z" fill-rule="nonzero"/><path fill="#b6d7a8" d="m55.80315 139.15224l46.740154 0l0 44.94487l-46.740154 0z" fill-rule="evenodd"/><path stroke="#000000" stroke-width="2.0" stroke-linejoin="round" stroke-linecap="butt" d="m55.80315 139.15224l46.740154 0l0 44.94487l-46.740154 0z" fill-rule="evenodd"/><path fill="#000000" d="m82.056984 176.58717q-6.765625 0 -10.3125 -3.75q-3.53125 -3.765625 -3.53125 -10.6875q0 -3.4375 1.078125 -6.140625q1.078125 -2.703125 2.953125 -4.5625q1.890625 -1.859375 4.484375 -2.8125q2.609375 -0.96875 5.640625 -0.96875q1.765625 0 3.203125 0.265625q1.4375 0.25 2.515625 0.59375q1.078125 0.34375 1.796875 0.703125q0.734375 0.359375 1.046875 0.5625l-1.796875 5.03125q-1.28125 -0.671875 -2.984375 -1.15625q-1.703125 -0.484375 -3.859375 -0.484375q-1.4375 0 -2.828125 0.484375q-1.375 0.484375 -2.4375 1.546875q-1.046875 1.046875 -1.6875 2.734375q-0.640625 1.671875 -0.640625 4.078125q0 1.921875 0.40625 3.578125q0.421875 1.65625 1.359375 2.859375q0.953125 1.203125 2.46875 1.90625q1.515625 0.703125 3.6875 0.703125q1.359375 0 2.4375 -0.15625q1.078125 -0.171875 1.90625 -0.390625q0.84375 -0.21875 1.484375 -0.5q0.640625 -0.28125 1.171875 -0.515625l1.71875 5.0q-1.328125 0.796875 -3.734375 1.4375q-2.390625 0.640625 -5.546875 0.640625z" fill-rule="nonzero"/><path fill="#a4c2f4" d="m102.543304 139.15224l46.740158 0l0 44.94487l-46.740158 0z" fill-rule="evenodd"/><path stroke="#000000" stroke-width="2.0" stroke-linejoin="round" stroke-linecap="butt" d="m102.543304 139.15224l46.740158 0l0 44.94487l-46.740158 0z" fill-rule="evenodd"/><path fill="#000000" d="m128.59215 153.1028q-4.359375 0 -6.296875 2.421875q-1.9375 2.421875 -1.9375 6.625q0 2.03125 0.46875 3.703125q0.484375 1.65625 1.4375 2.859375q0.96875 1.1875 2.40625 1.859375q1.4375 0.65625 3.359375 0.65625q1.046875 0 1.78125 -0.03125q0.75 -0.046875 1.296875 -0.171875l0 -9.640625l6.25 0l0 13.71875q-1.125 0.4375 -3.609375 0.9375q-2.46875 0.5 -6.109375 0.5q-3.125 0 -5.671875 -0.953125q-2.53125 -0.96875 -4.34375 -2.796875q-1.796875 -1.84375 -2.78125 -4.515625q-0.96875 -2.6875 -0.96875 -6.125q0 -3.484375 1.078125 -6.15625q1.078125 -2.6875 2.953125 -4.546875q1.890625 -1.859375 4.421875 -2.8125q2.546875 -0.96875 5.421875 -0.96875q1.96875 0 3.546875 0.265625q1.578125 0.25 2.71875 0.59375q1.140625 0.34375 1.875 0.703125q0.75 0.359375 1.0625 0.5625l-1.796875 5.0q-1.28125 -0.6875 -2.9375 -1.1875q-1.65625 -0.5 -3.625 -0.5z" fill-rule="nonzero"/><path fill="#f6b26b" d="m149.28346 139.15224l46.740158 0l0 44.94487l-46.740158 0z" fill-rule="evenodd"/><path stroke="#000000" stroke-width="2.0" stroke-linejoin="round" stroke-linecap="butt" d="m149.28346 139.15224l46.740158 0l0 44.94487l-46.740158 0z" fill-rule="evenodd"/><path fill="#000000" d="m184.13918 148.30592l0 5.3125l-8.359375 0l0 22.40625l-6.25 0l0 -22.40625l-8.359375 0l0 -5.3125l22.96875 0z" fill-rule="nonzero"/></g></svg>