<?xml version="1.0" encoding="utf-8" standalone="no"?>
<!DOCTYPE svg PUBLIC "-//W3C//DTD SVG 1.1//EN"
  "http://www.w3.org/Graphics/SVG/1.1/DTD/svg11.dtd">
<svg xmlns:xlink="http://www.w3.org/1999/xlink" width="1080pt" height="158.4pt" viewBox="0 0 1080 158.4" xmlns="http://www.w3.org/2000/svg" version="1.1">
 <metadata>
  <rdf:RDF xmlns:dc="http://purl.org/dc/elements/1.1/" xmlns:cc="http://creativecommons.org/ns#" xmlns:rdf="http://www.w3.org/1999/02/22-rdf-syntax-ns#">
   <cc:Work>
    <dc:type rdf:resource="http://purl.org/dc/dcmitype/StillImage"/>
    <dc:date>2023-08-24T14:38:01.276307</dc:date>
    <dc:format>image/svg+xml</dc:format>
    <dc:creator>
     <cc:Agent>
      <dc:title>Matplotlib v3.7.1, https://matplotlib.org/</dc:title>
     </cc:Agent>
    </dc:creator>
   </cc:Work>
  </rdf:RDF>
 </metadata>
 <defs>
  <style type="text/css">*{stroke-linejoin: round; stroke-linecap: butt}</style>
 </defs>
 <g id="figure_1">
  <g id="patch_1">
   <path d="M 0 158.4 
L 1080 158.4 
L 1080 0 
L 0 0 
z
" style="fill: #ffffff"/>
  </g>
  <g id="axes_1">
   <g id="line2d_1">
    <path d="M 13.853154 113.417143 
L 1069.2 113.417143 
" clip-path="url(#p078b23077a)" style="fill: none; stroke: #000000; stroke-width: 1.5; stroke-linecap: square"/>
   </g>
   <g id="line2d_2">
    <path d="M 589.927753 79.211429 
L 589.927753 113.417143 
" clip-path="url(#p078b23077a)" style="fill: none; stroke: #000000; stroke-width: 0.5; stroke-linecap: square"/>
   </g>
   <g id="line2d_3">
    <path d="M 420.579527 79.211429 
L 420.579527 113.417143 
" clip-path="url(#p078b23077a)" style="fill: none; stroke: #000000; stroke-width: 0.5; stroke-linecap: square"/>
   </g>
   <g id="patch_2">
    <path d="M 944.608889 120.417143 
Q 842.504681 120.417143 740.400473 120.417143 
L 740.400473 120.417143 
Q 736.200943 116.917143 732.001413 113.417143 
Q 736.200943 109.917143 740.400473 106.417143 
L 740.400473 106.417143 
Q 842.504681 106.417143 944.608889 106.417143 
L 944.608889 120.417143 
z
" clip-path="url(#p078b23077a)" style="fill: #0000ff; stroke: #000000; stroke-linecap: round"/>
   </g>
   <g id="patch_3">
    <path d="M 280.629706 120.417143 
Q 188.584867 120.417143 96.540028 120.417143 
L 96.540028 120.417143 
Q 92.34142 116.917143 88.142811 113.417143 
Q 92.34142 109.917143 96.540028 106.417143 
L 96.540028 106.417143 
Q 188.584867 106.417143 280.629706 106.417143 
L 280.629706 120.417143 
z
" clip-path="url(#p078b23077a)" style="fill: #0000ff; stroke: #000000; stroke-linecap: round"/>
   </g>
   <g id="patch_4">
    <path d="M 423.932957 106.417143 
Q 499.880343 106.417143 575.827729 106.417143 
L 575.827729 106.417143 
Q 580.027325 109.917143 584.226922 113.417143 
Q 580.027325 116.917143 575.827729 120.417143 
L 575.827729 120.417143 
Q 499.880343 120.417143 423.932957 120.417143 
L 423.932957 106.417143 
z
" clip-path="url(#p078b23077a)" style="fill: #0000ff; stroke: #000000; stroke-linecap: round"/>
   </g>
   <g id="patch_5">
    <path d="M 329.142663 106.417143 
Q 368.760597 106.417143 408.378532 106.417143 
L 408.378532 106.417143 
Q 412.578752 109.917143 416.778973 113.417143 
Q 412.578752 116.917143 408.378532 120.417143 
L 408.378532 120.417143 
Q 368.760597 120.417143 329.142663 120.417143 
L 329.142663 106.417143 
z
" clip-path="url(#p078b23077a)" style="fill: #0000ff; stroke: #000000; stroke-linecap: round"/>
   </g>
   <g id="patch_6">
    <path d="M 584.226922 106.417143 
Q 586.78645 106.417143 589.345979 106.417143 
L 589.345979 106.417143 
Q 592.487282 109.917143 595.628584 113.417143 
Q 592.487282 116.917143 589.345979 120.417143 
L 589.345979 120.417143 
Q 586.78645 120.417143 584.226922 120.417143 
L 584.226922 106.417143 
z
" clip-path="url(#p078b23077a)" style="fill: #008000; stroke: #000000; stroke-linecap: round"/>
   </g>
   <g id="patch_7">
    <path d="M 417.226097 106.417143 
Q 418.730883 106.417143 420.235669 106.417143 
L 420.235669 106.417143 
Q 422.084313 109.917143 423.932957 113.417143 
Q 422.084313 116.917143 420.235669 120.417143 
L 420.235669 120.417143 
Q 418.730883 120.417143 417.226097 120.417143 
L 417.226097 106.417143 
z
" clip-path="url(#p078b23077a)" style="fill: #ffd700; stroke: #000000; stroke-linecap: round"/>
   </g>
   <g id="patch_8">
    <path d="M 226.080574 72.211429 
Q 226.480541 72.211429 226.880507 72.211429 
L 226.880507 72.211429 
Q 227.374789 75.711429 227.86907 79.211429 
Q 227.374789 82.711429 226.880507 86.211429 
L 226.880507 86.211429 
Q 226.480541 86.211429 226.080574 86.211429 
L 226.080574 72.211429 
z
" clip-path="url(#p078b23077a)" style="fill: #ffd700; stroke: #000000; stroke-linecap: round"/>
   </g>
   <g id="patch_9">
    <path d="M 639.670301 106.417143 
Q 640.020272 106.417143 640.370242 106.417143 
L 640.370242 106.417143 
Q 640.802739 109.917143 641.235235 113.417143 
Q 640.802739 116.917143 640.370242 120.417143 
L 640.370242 120.417143 
Q 640.020272 120.417143 639.670301 120.417143 
L 639.670301 106.417143 
z
" clip-path="url(#p078b23077a)" style="fill: #ffd700; stroke: #000000; stroke-linecap: round"/>
   </g>
   <g id="matplotlib.axis_1">
    <g id="xtick_1">
     <g id="line2d_4">
      <defs>
       <path id="m2693f4ff46" d="M 0 0 
L 0 3.5 
" style="stroke: #808080; stroke-width: 0.8"/>
      </defs>
      <g>
       <use xlink:href="#m2693f4ff46" x="14.032003" y="130.52" style="fill: #808080; stroke: #808080; stroke-width: 0.8"/>
      </g>
     </g>
     <g id="text_1">
      <!-- 0 -->
      <g style="fill: #808080" transform="translate(10.850753 145.118438) scale(0.1 -0.1)">
       <defs>
        <path id="DejaVuSans-30" d="M 2034 4250 
Q 1547 4250 1301 3770 
Q 1056 3291 1056 2328 
Q 1056 1369 1301 889 
Q 1547 409 2034 409 
Q 2525 409 2770 889 
Q 3016 1369 3016 2328 
Q 3016 3291 2770 3770 
Q 2525 4250 2034 4250 
z
M 2034 4750 
Q 2819 4750 3233 4129 
Q 3647 3509 3647 2328 
Q 3647 1150 3233 529 
Q 2819 -91 2034 -91 
Q 1250 -91 836 529 
Q 422 1150 422 2328 
Q 422 3509 836 4129 
Q 1250 4750 2034 4750 
z
" transform="scale(0.015625)"/>
       </defs>
       <use xlink:href="#DejaVuSans-30"/>
      </g>
     </g>
    </g>
    <g id="xtick_2">
     <g id="line2d_5">
      <g>
       <use xlink:href="#m2693f4ff46" x="125.813011" y="130.52" style="fill: #808080; stroke: #808080; stroke-width: 0.8"/>
      </g>
     </g>
     <g id="text_2">
      <!-- 500 -->
      <g style="fill: #808080" transform="translate(116.269261 145.118438) scale(0.1 -0.1)">
       <defs>
        <path id="DejaVuSans-35" d="M 691 4666 
L 3169 4666 
L 3169 4134 
L 1269 4134 
L 1269 2991 
Q 1406 3038 1543 3061 
Q 1681 3084 1819 3084 
Q 2600 3084 3056 2656 
Q 3513 2228 3513 1497 
Q 3513 744 3044 326 
Q 2575 -91 1722 -91 
Q 1428 -91 1123 -41 
Q 819 9 494 109 
L 494 744 
Q 775 591 1075 516 
Q 1375 441 1709 441 
Q 2250 441 2565 725 
Q 2881 1009 2881 1497 
Q 2881 1984 2565 2268 
Q 2250 2553 1709 2553 
Q 1456 2553 1204 2497 
Q 953 2441 691 2322 
L 691 4666 
z
" transform="scale(0.015625)"/>
       </defs>
       <use xlink:href="#DejaVuSans-35"/>
       <use xlink:href="#DejaVuSans-30" x="63.623047"/>
       <use xlink:href="#DejaVuSans-30" x="127.246094"/>
      </g>
     </g>
    </g>
    <g id="xtick_3">
     <g id="line2d_6">
      <g>
       <use xlink:href="#m2693f4ff46" x="237.594018" y="130.52" style="fill: #808080; stroke: #808080; stroke-width: 0.8"/>
      </g>
     </g>
     <g id="text_3">
      <!-- 1,000 -->
      <g style="fill: #808080" transform="translate(223.279955 145.118438) scale(0.1 -0.1)">
       <defs>
        <path id="DejaVuSans-31" d="M 794 531 
L 1825 531 
L 1825 4091 
L 703 3866 
L 703 4441 
L 1819 4666 
L 2450 4666 
L 2450 531 
L 3481 531 
L 3481 0 
L 794 0 
L 794 531 
z
" transform="scale(0.015625)"/>
        <path id="DejaVuSans-2c" d="M 750 794 
L 1409 794 
L 1409 256 
L 897 -744 
L 494 -744 
L 750 256 
L 750 794 
z
" transform="scale(0.015625)"/>
       </defs>
       <use xlink:href="#DejaVuSans-31"/>
       <use xlink:href="#DejaVuSans-2c" x="63.623047"/>
       <use xlink:href="#DejaVuSans-30" x="95.410156"/>
       <use xlink:href="#DejaVuSans-30" x="159.033203"/>
       <use xlink:href="#DejaVuSans-30" x="222.65625"/>
      </g>
     </g>
    </g>
    <g id="xtick_4">
     <g id="line2d_7">
      <g>
       <use xlink:href="#m2693f4ff46" x="349.375025" y="130.52" style="fill: #808080; stroke: #808080; stroke-width: 0.8"/>
      </g>
     </g>
     <g id="text_4">
      <!-- 1,500 -->
      <g style="fill: #808080" transform="translate(335.060963 145.118438) scale(0.1 -0.1)">
       <use xlink:href="#DejaVuSans-31"/>
       <use xlink:href="#DejaVuSans-2c" x="63.623047"/>
       <use xlink:href="#DejaVuSans-35" x="95.410156"/>
       <use xlink:href="#DejaVuSans-30" x="159.033203"/>
       <use xlink:href="#DejaVuSans-30" x="222.65625"/>
      </g>
     </g>
    </g>
    <g id="xtick_5">
     <g id="line2d_8">
      <g>
       <use xlink:href="#m2693f4ff46" x="461.156033" y="130.52" style="fill: #808080; stroke: #808080; stroke-width: 0.8"/>
      </g>
     </g>
     <g id="text_5">
      <!-- 2,000 -->
      <g style="fill: #808080" transform="translate(446.84197 145.118438) scale(0.1 -0.1)">
       <defs>
        <path id="DejaVuSans-32" d="M 1228 531 
L 3431 531 
L 3431 0 
L 469 0 
L 469 531 
Q 828 903 1448 1529 
Q 2069 2156 2228 2338 
Q 2531 2678 2651 2914 
Q 2772 3150 2772 3378 
Q 2772 3750 2511 3984 
Q 2250 4219 1831 4219 
Q 1534 4219 1204 4116 
Q 875 4013 500 3803 
L 500 4441 
Q 881 4594 1212 4672 
Q 1544 4750 1819 4750 
Q 2544 4750 2975 4387 
Q 3406 4025 3406 3419 
Q 3406 3131 3298 2873 
Q 3191 2616 2906 2266 
Q 2828 2175 2409 1742 
Q 1991 1309 1228 531 
z
" transform="scale(0.015625)"/>
       </defs>
       <use xlink:href="#DejaVuSans-32"/>
       <use xlink:href="#DejaVuSans-2c" x="63.623047"/>
       <use xlink:href="#DejaVuSans-30" x="95.410156"/>
       <use xlink:href="#DejaVuSans-30" x="159.033203"/>
       <use xlink:href="#DejaVuSans-30" x="222.65625"/>
      </g>
     </g>
    </g>
    <g id="xtick_6">
     <g id="line2d_9">
      <g>
       <use xlink:href="#m2693f4ff46" x="572.93704" y="130.52" style="fill: #808080; stroke: #808080; stroke-width: 0.8"/>
      </g>
     </g>
     <g id="text_6">
      <!-- 2,500 -->
      <g style="fill: #808080" transform="translate(558.622977 145.118438) scale(0.1 -0.1)">
       <use xlink:href="#DejaVuSans-32"/>
       <use xlink:href="#DejaVuSans-2c" x="63.623047"/>
       <use xlink:href="#DejaVuSans-35" x="95.410156"/>
       <use xlink:href="#DejaVuSans-30" x="159.033203"/>
       <use xlink:href="#DejaVuSans-30" x="222.65625"/>
      </g>
     </g>
    </g>
    <g id="xtick_7">
     <g id="line2d_10">
      <g>
       <use xlink:href="#m2693f4ff46" x="684.718047" y="130.52" style="fill: #808080; stroke: #808080; stroke-width: 0.8"/>
      </g>
     </g>
     <g id="text_7">
      <!-- 3,000 -->
      <g style="fill: #808080" transform="translate(670.403985 145.118438) scale(0.1 -0.1)">
       <defs>
        <path id="DejaVuSans-33" d="M 2597 2516 
Q 3050 2419 3304 2112 
Q 3559 1806 3559 1356 
Q 3559 666 3084 287 
Q 2609 -91 1734 -91 
Q 1441 -91 1130 -33 
Q 819 25 488 141 
L 488 750 
Q 750 597 1062 519 
Q 1375 441 1716 441 
Q 2309 441 2620 675 
Q 2931 909 2931 1356 
Q 2931 1769 2642 2001 
Q 2353 2234 1838 2234 
L 1294 2234 
L 1294 2753 
L 1863 2753 
Q 2328 2753 2575 2939 
Q 2822 3125 2822 3475 
Q 2822 3834 2567 4026 
Q 2313 4219 1838 4219 
Q 1578 4219 1281 4162 
Q 984 4106 628 3988 
L 628 4550 
Q 988 4650 1302 4700 
Q 1616 4750 1894 4750 
Q 2613 4750 3031 4423 
Q 3450 4097 3450 3541 
Q 3450 3153 3228 2886 
Q 3006 2619 2597 2516 
z
" transform="scale(0.015625)"/>
       </defs>
       <use xlink:href="#DejaVuSans-33"/>
       <use xlink:href="#DejaVuSans-2c" x="63.623047"/>
       <use xlink:href="#DejaVuSans-30" x="95.410156"/>
       <use xlink:href="#DejaVuSans-30" x="159.033203"/>
       <use xlink:href="#DejaVuSans-30" x="222.65625"/>
      </g>
     </g>
    </g>
    <g id="xtick_8">
     <g id="line2d_11">
      <g>
       <use xlink:href="#m2693f4ff46" x="796.499055" y="130.52" style="fill: #808080; stroke: #808080; stroke-width: 0.8"/>
      </g>
     </g>
     <g id="text_8">
      <!-- 3,500 -->
      <g style="fill: #808080" transform="translate(782.184992 145.118438) scale(0.1 -0.1)">
       <use xlink:href="#DejaVuSans-33"/>
       <use xlink:href="#DejaVuSans-2c" x="63.623047"/>
       <use xlink:href="#DejaVuSans-35" x="95.410156"/>
       <use xlink:href="#DejaVuSans-30" x="159.033203"/>
       <use xlink:href="#DejaVuSans-30" x="222.65625"/>
      </g>
     </g>
    </g>
    <g id="xtick_9">
     <g id="line2d_12">
      <g>
       <use xlink:href="#m2693f4ff46" x="908.280062" y="130.52" style="fill: #808080; stroke: #808080; stroke-width: 0.8"/>
      </g>
     </g>
     <g id="text_9">
      <!-- 4,000 -->
      <g style="fill: #808080" transform="translate(893.965999 145.118438) scale(0.1 -0.1)">
       <defs>
        <path id="DejaVuSans-34" d="M 2419 4116 
L 825 1625 
L 2419 1625 
L 2419 4116 
z
M 2253 4666 
L 3047 4666 
L 3047 1625 
L 3713 1625 
L 3713 1100 
L 3047 1100 
L 3047 0 
L 2419 0 
L 2419 1100 
L 313 1100 
L 313 1709 
L 2253 4666 
z
" transform="scale(0.015625)"/>
       </defs>
       <use xlink:href="#DejaVuSans-34"/>
       <use xlink:href="#DejaVuSans-2c" x="63.623047"/>
       <use xlink:href="#DejaVuSans-30" x="95.410156"/>
       <use xlink:href="#DejaVuSans-30" x="159.033203"/>
       <use xlink:href="#DejaVuSans-30" x="222.65625"/>
      </g>
     </g>
    </g>
    <g id="xtick_10">
     <g id="line2d_13">
      <g>
       <use xlink:href="#m2693f4ff46" x="1020.061069" y="130.52" style="fill: #808080; stroke: #808080; stroke-width: 0.8"/>
      </g>
     </g>
     <g id="text_10">
      <!-- 4,500 -->
      <g style="fill: #808080" transform="translate(1005.747007 145.118438) scale(0.1 -0.1)">
       <use xlink:href="#DejaVuSans-34"/>
       <use xlink:href="#DejaVuSans-2c" x="63.623047"/>
       <use xlink:href="#DejaVuSans-35" x="95.410156"/>
       <use xlink:href="#DejaVuSans-30" x="159.033203"/>
       <use xlink:href="#DejaVuSans-30" x="222.65625"/>
      </g>
     </g>
    </g>
   </g>
   <g id="text_11">
    <!-- CDS here -->
    <g style="fill: #ffffff" transform="translate(812.598667 116.452455) scale(0.11 -0.11)">
     <defs>
      <path id="DejaVuSans-43" d="M 4122 4306 
L 4122 3641 
Q 3803 3938 3442 4084 
Q 3081 4231 2675 4231 
Q 1875 4231 1450 3742 
Q 1025 3253 1025 2328 
Q 1025 1406 1450 917 
Q 1875 428 2675 428 
Q 3081 428 3442 575 
Q 3803 722 4122 1019 
L 4122 359 
Q 3791 134 3420 21 
Q 3050 -91 2638 -91 
Q 1578 -91 968 557 
Q 359 1206 359 2328 
Q 359 3453 968 4101 
Q 1578 4750 2638 4750 
Q 3056 4750 3426 4639 
Q 3797 4528 4122 4306 
z
" transform="scale(0.015625)"/>
      <path id="DejaVuSans-44" d="M 1259 4147 
L 1259 519 
L 2022 519 
Q 2988 519 3436 956 
Q 3884 1394 3884 2338 
Q 3884 3275 3436 3711 
Q 2988 4147 2022 4147 
L 1259 4147 
z
M 628 4666 
L 1925 4666 
Q 3281 4666 3915 4102 
Q 4550 3538 4550 2338 
Q 4550 1131 3912 565 
Q 3275 0 1925 0 
L 628 0 
L 628 4666 
z
" transform="scale(0.015625)"/>
      <path id="DejaVuSans-53" d="M 3425 4513 
L 3425 3897 
Q 3066 4069 2747 4153 
Q 2428 4238 2131 4238 
Q 1616 4238 1336 4038 
Q 1056 3838 1056 3469 
Q 1056 3159 1242 3001 
Q 1428 2844 1947 2747 
L 2328 2669 
Q 3034 2534 3370 2195 
Q 3706 1856 3706 1288 
Q 3706 609 3251 259 
Q 2797 -91 1919 -91 
Q 1588 -91 1214 -16 
Q 841 59 441 206 
L 441 856 
Q 825 641 1194 531 
Q 1563 422 1919 422 
Q 2459 422 2753 634 
Q 3047 847 3047 1241 
Q 3047 1584 2836 1778 
Q 2625 1972 2144 2069 
L 1759 2144 
Q 1053 2284 737 2584 
Q 422 2884 422 3419 
Q 422 4038 858 4394 
Q 1294 4750 2059 4750 
Q 2388 4750 2728 4690 
Q 3069 4631 3425 4513 
z
" transform="scale(0.015625)"/>
      <path id="DejaVuSans-20" transform="scale(0.015625)"/>
      <path id="DejaVuSans-68" d="M 3513 2113 
L 3513 0 
L 2938 0 
L 2938 2094 
Q 2938 2591 2744 2837 
Q 2550 3084 2163 3084 
Q 1697 3084 1428 2787 
Q 1159 2491 1159 1978 
L 1159 0 
L 581 0 
L 581 4863 
L 1159 4863 
L 1159 2956 
Q 1366 3272 1645 3428 
Q 1925 3584 2291 3584 
Q 2894 3584 3203 3211 
Q 3513 2838 3513 2113 
z
" transform="scale(0.015625)"/>
      <path id="DejaVuSans-65" d="M 3597 1894 
L 3597 1613 
L 953 1613 
Q 991 1019 1311 708 
Q 1631 397 2203 397 
Q 2534 397 2845 478 
Q 3156 559 3463 722 
L 3463 178 
Q 3153 47 2828 -22 
Q 2503 -91 2169 -91 
Q 1331 -91 842 396 
Q 353 884 353 1716 
Q 353 2575 817 3079 
Q 1281 3584 2069 3584 
Q 2775 3584 3186 3129 
Q 3597 2675 3597 1894 
z
M 3022 2063 
Q 3016 2534 2758 2815 
Q 2500 3097 2075 3097 
Q 1594 3097 1305 2825 
Q 1016 2553 972 2059 
L 3022 2063 
z
" transform="scale(0.015625)"/>
      <path id="DejaVuSans-72" d="M 2631 2963 
Q 2534 3019 2420 3045 
Q 2306 3072 2169 3072 
Q 1681 3072 1420 2755 
Q 1159 2438 1159 1844 
L 1159 0 
L 581 0 
L 581 3500 
L 1159 3500 
L 1159 2956 
Q 1341 3275 1631 3429 
Q 1922 3584 2338 3584 
Q 2397 3584 2469 3576 
Q 2541 3569 2628 3553 
L 2631 2963 
z
" transform="scale(0.015625)"/>
     </defs>
     <use xlink:href="#DejaVuSans-43"/>
     <use xlink:href="#DejaVuSans-44" x="69.824219"/>
     <use xlink:href="#DejaVuSans-53" x="146.826172"/>
     <use xlink:href="#DejaVuSans-20" x="210.302734"/>
     <use xlink:href="#DejaVuSans-68" x="242.089844"/>
     <use xlink:href="#DejaVuSans-65" x="305.46875"/>
     <use xlink:href="#DejaVuSans-72" x="366.992188"/>
     <use xlink:href="#DejaVuSans-65" x="405.855469"/>
    </g>
   </g>
   <g id="text_12">
    <!-- CDS here -->
    <g style="fill: #ffffff" transform="translate(158.679774 116.452455) scale(0.11 -0.11)">
     <use xlink:href="#DejaVuSans-43"/>
     <use xlink:href="#DejaVuSans-44" x="69.824219"/>
     <use xlink:href="#DejaVuSans-53" x="146.826172"/>
     <use xlink:href="#DejaVuSans-20" x="210.302734"/>
     <use xlink:href="#DejaVuSans-68" x="242.089844"/>
     <use xlink:href="#DejaVuSans-65" x="305.46875"/>
     <use xlink:href="#DejaVuSans-72" x="366.992188"/>
     <use xlink:href="#DejaVuSans-65" x="405.855469"/>
    </g>
   </g>
   <g id="text_13">
    <!-- CDS here -->
    <g style="fill: #ffffff" transform="translate(478.373455 116.452455) scale(0.11 -0.11)">
     <use xlink:href="#DejaVuSans-43"/>
     <use xlink:href="#DejaVuSans-44" x="69.824219"/>
     <use xlink:href="#DejaVuSans-53" x="146.826172"/>
     <use xlink:href="#DejaVuSans-20" x="210.302734"/>
     <use xlink:href="#DejaVuSans-68" x="242.089844"/>
     <use xlink:href="#DejaVuSans-65" x="305.46875"/>
     <use xlink:href="#DejaVuSans-72" x="366.992188"/>
     <use xlink:href="#DejaVuSans-65" x="405.855469"/>
    </g>
   </g>
   <g id="text_14">
    <!-- CDS here -->
    <g style="fill: #ffffff" transform="translate(347.254333 116.452455) scale(0.11 -0.11)">
     <use xlink:href="#DejaVuSans-43"/>
     <use xlink:href="#DejaVuSans-44" x="69.824219"/>
     <use xlink:href="#DejaVuSans-53" x="146.826172"/>
     <use xlink:href="#DejaVuSans-20" x="210.302734"/>
     <use xlink:href="#DejaVuSans-68" x="242.089844"/>
     <use xlink:href="#DejaVuSans-65" x="305.46875"/>
     <use xlink:href="#DejaVuSans-72" x="366.992188"/>
     <use xlink:href="#DejaVuSans-65" x="405.855469"/>
    </g>
   </g>
   <g id="text_15">
    <g id="patch_10">
     <path d="M 545.184394 87.834397 
L 634.671112 87.834397 
Q 637.971112 87.834397 637.971112 84.534397 
L 637.971112 73.88846 
Q 637.971112 70.58846 634.671112 70.58846 
L 545.184394 70.58846 
Q 541.884394 70.58846 541.884394 73.88846 
L 541.884394 84.534397 
Q 541.884394 87.834397 545.184394 87.834397 
z
" style="fill: #e5ffe5; stroke: #808080; stroke-width: 0.3; stroke-linejoin: miter"/>
    </g>
    <!-- kanR terminator -->
    <g transform="translate(545.184394 82.246741) scale(0.11 -0.11)">
     <defs>
      <path id="DejaVuSans-6b" d="M 581 4863 
L 1159 4863 
L 1159 1991 
L 2875 3500 
L 3609 3500 
L 1753 1863 
L 3688 0 
L 2938 0 
L 1159 1709 
L 1159 0 
L 581 0 
L 581 4863 
z
" transform="scale(0.015625)"/>
      <path id="DejaVuSans-61" d="M 2194 1759 
Q 1497 1759 1228 1600 
Q 959 1441 959 1056 
Q 959 750 1161 570 
Q 1363 391 1709 391 
Q 2188 391 2477 730 
Q 2766 1069 2766 1631 
L 2766 1759 
L 2194 1759 
z
M 3341 1997 
L 3341 0 
L 2766 0 
L 2766 531 
Q 2569 213 2275 61 
Q 1981 -91 1556 -91 
Q 1019 -91 701 211 
Q 384 513 384 1019 
Q 384 1609 779 1909 
Q 1175 2209 1959 2209 
L 2766 2209 
L 2766 2266 
Q 2766 2663 2505 2880 
Q 2244 3097 1772 3097 
Q 1472 3097 1187 3025 
Q 903 2953 641 2809 
L 641 3341 
Q 956 3463 1253 3523 
Q 1550 3584 1831 3584 
Q 2591 3584 2966 3190 
Q 3341 2797 3341 1997 
z
" transform="scale(0.015625)"/>
      <path id="DejaVuSans-6e" d="M 3513 2113 
L 3513 0 
L 2938 0 
L 2938 2094 
Q 2938 2591 2744 2837 
Q 2550 3084 2163 3084 
Q 1697 3084 1428 2787 
Q 1159 2491 1159 1978 
L 1159 0 
L 581 0 
L 581 3500 
L 1159 3500 
L 1159 2956 
Q 1366 3272 1645 3428 
Q 1925 3584 2291 3584 
Q 2894 3584 3203 3211 
Q 3513 2838 3513 2113 
z
" transform="scale(0.015625)"/>
      <path id="DejaVuSans-52" d="M 2841 2188 
Q 3044 2119 3236 1894 
Q 3428 1669 3622 1275 
L 4263 0 
L 3584 0 
L 2988 1197 
Q 2756 1666 2539 1819 
Q 2322 1972 1947 1972 
L 1259 1972 
L 1259 0 
L 628 0 
L 628 4666 
L 2053 4666 
Q 2853 4666 3247 4331 
Q 3641 3997 3641 3322 
Q 3641 2881 3436 2590 
Q 3231 2300 2841 2188 
z
M 1259 4147 
L 1259 2491 
L 2053 2491 
Q 2509 2491 2742 2702 
Q 2975 2913 2975 3322 
Q 2975 3731 2742 3939 
Q 2509 4147 2053 4147 
L 1259 4147 
z
" transform="scale(0.015625)"/>
      <path id="DejaVuSans-74" d="M 1172 4494 
L 1172 3500 
L 2356 3500 
L 2356 3053 
L 1172 3053 
L 1172 1153 
Q 1172 725 1289 603 
Q 1406 481 1766 481 
L 2356 481 
L 2356 0 
L 1766 0 
Q 1100 0 847 248 
Q 594 497 594 1153 
L 594 3053 
L 172 3053 
L 172 3500 
L 594 3500 
L 594 4494 
L 1172 4494 
z
" transform="scale(0.015625)"/>
      <path id="DejaVuSans-6d" d="M 3328 2828 
Q 3544 3216 3844 3400 
Q 4144 3584 4550 3584 
Q 5097 3584 5394 3201 
Q 5691 2819 5691 2113 
L 5691 0 
L 5113 0 
L 5113 2094 
Q 5113 2597 4934 2840 
Q 4756 3084 4391 3084 
Q 3944 3084 3684 2787 
Q 3425 2491 3425 1978 
L 3425 0 
L 2847 0 
L 2847 2094 
Q 2847 2600 2669 2842 
Q 2491 3084 2119 3084 
Q 1678 3084 1418 2786 
Q 1159 2488 1159 1978 
L 1159 0 
L 581 0 
L 581 3500 
L 1159 3500 
L 1159 2956 
Q 1356 3278 1631 3431 
Q 1906 3584 2284 3584 
Q 2666 3584 2933 3390 
Q 3200 3197 3328 2828 
z
" transform="scale(0.015625)"/>
      <path id="DejaVuSans-69" d="M 603 3500 
L 1178 3500 
L 1178 0 
L 603 0 
L 603 3500 
z
M 603 4863 
L 1178 4863 
L 1178 4134 
L 603 4134 
L 603 4863 
z
" transform="scale(0.015625)"/>
      <path id="DejaVuSans-6f" d="M 1959 3097 
Q 1497 3097 1228 2736 
Q 959 2375 959 1747 
Q 959 1119 1226 758 
Q 1494 397 1959 397 
Q 2419 397 2687 759 
Q 2956 1122 2956 1747 
Q 2956 2369 2687 2733 
Q 2419 3097 1959 3097 
z
M 1959 3584 
Q 2709 3584 3137 3096 
Q 3566 2609 3566 1747 
Q 3566 888 3137 398 
Q 2709 -91 1959 -91 
Q 1206 -91 779 398 
Q 353 888 353 1747 
Q 353 2609 779 3096 
Q 1206 3584 1959 3584 
z
" transform="scale(0.015625)"/>
     </defs>
     <use xlink:href="#DejaVuSans-6b"/>
     <use xlink:href="#DejaVuSans-61" x="56.160156"/>
     <use xlink:href="#DejaVuSans-6e" x="117.439453"/>
     <use xlink:href="#DejaVuSans-52" x="180.818359"/>
     <use xlink:href="#DejaVuSans-20" x="250.300781"/>
     <use xlink:href="#DejaVuSans-74" x="282.087891"/>
     <use xlink:href="#DejaVuSans-65" x="321.296875"/>
     <use xlink:href="#DejaVuSans-72" x="382.820312"/>
     <use xlink:href="#DejaVuSans-6d" x="422.183594"/>
     <use xlink:href="#DejaVuSans-69" x="519.595703"/>
     <use xlink:href="#DejaVuSans-6e" x="547.378906"/>
     <use xlink:href="#DejaVuSans-61" x="610.757812"/>
     <use xlink:href="#DejaVuSans-74" x="672.037109"/>
     <use xlink:href="#DejaVuSans-6f" x="711.246094"/>
     <use xlink:href="#DejaVuSans-72" x="772.427734"/>
    </g>
   </g>
   <g id="text_16">
    <g id="patch_11">
     <path d="M 395.061246 87.834397 
L 446.097808 87.834397 
Q 449.397808 87.834397 449.397808 84.534397 
L 449.397808 73.88846 
Q 449.397808 70.58846 446.097808 70.58846 
L 395.061246 70.58846 
Q 391.761246 70.58846 391.761246 73.88846 
L 391.761246 84.534397 
Q 391.761246 87.834397 395.061246 87.834397 
z
" style="fill: #fffbe5; stroke: #808080; stroke-width: 0.3; stroke-linejoin: miter"/>
    </g>
    <!-- promoter -->
    <g transform="translate(395.061246 82.246741) scale(0.11 -0.11)">
     <defs>
      <path id="DejaVuSans-70" d="M 1159 525 
L 1159 -1331 
L 581 -1331 
L 581 3500 
L 1159 3500 
L 1159 2969 
Q 1341 3281 1617 3432 
Q 1894 3584 2278 3584 
Q 2916 3584 3314 3078 
Q 3713 2572 3713 1747 
Q 3713 922 3314 415 
Q 2916 -91 2278 -91 
Q 1894 -91 1617 61 
Q 1341 213 1159 525 
z
M 3116 1747 
Q 3116 2381 2855 2742 
Q 2594 3103 2138 3103 
Q 1681 3103 1420 2742 
Q 1159 2381 1159 1747 
Q 1159 1113 1420 752 
Q 1681 391 2138 391 
Q 2594 391 2855 752 
Q 3116 1113 3116 1747 
z
" transform="scale(0.015625)"/>
     </defs>
     <use xlink:href="#DejaVuSans-70"/>
     <use xlink:href="#DejaVuSans-72" x="63.476562"/>
     <use xlink:href="#DejaVuSans-6f" x="102.339844"/>
     <use xlink:href="#DejaVuSans-6d" x="163.521484"/>
     <use xlink:href="#DejaVuSans-6f" x="260.933594"/>
     <use xlink:href="#DejaVuSans-74" x="322.115234"/>
     <use xlink:href="#DejaVuSans-65" x="361.324219"/>
     <use xlink:href="#DejaVuSans-72" x="422.847656"/>
    </g>
   </g>
  </g>
 </g>
 <defs>
  <clipPath id="p078b23077a">
   <rect x="13.853154" y="10.8" width="1055.346846" height="119.72"/>
  </clipPath>
 </defs>
</svg>
