<?xml version="1.0" encoding="utf-8" standalone="no"?>
<!DOCTYPE svg PUBLIC "-//W3C//DTD SVG 1.1//EN"
  "http://www.w3.org/Graphics/SVG/1.1/DTD/svg11.dtd">
<svg xmlns:xlink="http://www.w3.org/1999/xlink" width="864pt" height="187.2pt" viewBox="0 0 864 187.2" xmlns="http://www.w3.org/2000/svg" version="1.1">
 <metadata>
  <rdf:RDF xmlns:dc="http://purl.org/dc/elements/1.1/" xmlns:cc="http://creativecommons.org/ns#" xmlns:rdf="http://www.w3.org/1999/02/22-rdf-syntax-ns#">
   <cc:Work>
    <dc:type rdf:resource="http://purl.org/dc/dcmitype/StillImage"/>
    <dc:date>2023-08-23T14:31:28.349868</dc:date>
    <dc:format>image/svg+xml</dc:format>
    <dc:creator>
     <cc:Agent>
      <dc:title>Matplotlib v3.7.1, https://matplotlib.org/</dc:title>
     </cc:Agent>
    </dc:creator>
   </cc:Work>
  </rdf:RDF>
 </metadata>
 <defs>
  <style type="text/css">*{stroke-linejoin: round; stroke-linecap: butt}</style>
 </defs>
 <g id="figure_1">
  <g id="patch_1">
   <path d="M 0 187.2 
L 864 187.2 
L 864 0 
L 0 0 
z
" style="fill: #ffffff"/>
  </g>
  <g id="axes_1">
   <g id="line2d_1">
    <path d="M 850.118477 142.817778 
L 10.8 142.817778 
" clip-path="url(#pebf448e209)" style="fill: none; stroke: #000000; stroke-width: 1.5; stroke-linecap: square"/>
   </g>
   <g id="line2d_2">
    <path d="M 564.519767 109.813333 
L 564.519767 142.817778 
" clip-path="url(#pebf448e209)" style="fill: none; stroke: #000000; stroke-width: 0.5; stroke-linecap: square"/>
   </g>
   <g id="line2d_3">
    <path d="M 391.965731 109.813333 
L 391.965731 142.817778 
" clip-path="url(#pebf448e209)" style="fill: none; stroke: #000000; stroke-width: 0.5; stroke-linecap: square"/>
   </g>
   <g id="line2d_4">
    <path d="M 526.648557 76.808889 
L 526.648557 142.817778 
" clip-path="url(#pebf448e209)" style="fill: none; stroke: #000000; stroke-width: 0.5; stroke-linecap: square"/>
   </g>
   <g id="line2d_5">
    <path d="M 194.164222 76.808889 
L 194.164222 109.813333 
" clip-path="url(#pebf448e209)" style="fill: none; stroke: #000000; stroke-width: 0.5; stroke-linecap: square"/>
   </g>
   <g id="line2d_6">
    <path d="M 680.622586 76.808889 
L 680.622586 109.813333 
" clip-path="url(#pebf448e209)" style="fill: none; stroke: #000000; stroke-width: 0.5; stroke-linecap: square"/>
   </g>
   <g id="line2d_7">
    <path d="M 627.282853 43.804444 
L 627.282853 142.817778 
" clip-path="url(#pebf448e209)" style="fill: none; stroke: #000000; stroke-width: 0.5; stroke-linecap: square"/>
   </g>
   <g id="line2d_8">
    <path d="M 369.474144 43.804444 
L 369.474144 142.817778 
" clip-path="url(#pebf448e209)" style="fill: none; stroke: #000000; stroke-width: 0.5; stroke-linecap: square"/>
   </g>
   <g id="line2d_9">
    <path d="M 67.304557 109.813333 
L 67.304557 142.817778 
" clip-path="url(#pebf448e209)" style="fill: none; stroke: #000000; stroke-width: 0.5; stroke-linecap: square"/>
   </g>
   <g id="line2d_10">
    <path d="M 351.783133 76.808889 
L 351.783133 142.817778 
" clip-path="url(#pebf448e209)" style="fill: none; stroke: #000000; stroke-width: 0.5; stroke-linecap: square"/>
   </g>
   <g id="line2d_11">
    <path d="M 814.060818 109.813333 
L 814.060818 142.817778 
" clip-path="url(#pebf448e209)" style="fill: none; stroke: #000000; stroke-width: 0.5; stroke-linecap: square"/>
   </g>
   <g id="patch_2">
    <path d="M 109.887444 135.817778 
Q 190.231869 135.817778 270.576295 135.817778 
L 270.576295 135.817778 
Q 274.775346 139.317778 278.974397 142.817778 
Q 274.775346 146.317778 270.576295 149.817778 
L 270.576295 149.817778 
Q 190.231869 149.817778 109.887444 149.817778 
L 109.887444 135.817778 
z
" clip-path="url(#pebf448e209)" style="fill: #7245dc; stroke: #000000; stroke-linecap: round"/>
   </g>
   <g id="patch_3">
    <path d="M 637.9508 135.817778 
Q 710.291046 135.817778 782.631293 135.817778 
L 782.631293 135.817778 
Q 786.833563 139.317778 791.035833 142.817778 
Q 786.833563 146.317778 782.631293 149.817778 
L 782.631293 149.817778 
Q 710.291046 149.817778 637.9508 149.817778 
L 637.9508 135.817778 
z
" clip-path="url(#pebf448e209)" style="fill: #7245dc; stroke: #000000; stroke-linecap: round"/>
   </g>
   <g id="patch_4">
    <path d="M 523.98157 149.817778 
Q 464.44032 149.817778 404.89907 149.817778 
L 404.89907 149.817778 
Q 400.699339 146.317778 396.499609 142.817778 
Q 400.699339 139.317778 404.89907 135.817778 
L 404.89907 135.817778 
Q 464.44032 135.817778 523.98157 135.817778 
L 523.98157 149.817778 
z
" clip-path="url(#pebf448e209)" style="fill: #7245dc; stroke: #000000; stroke-linecap: round"/>
   </g>
   <g id="patch_5">
    <path d="M 599.368393 149.817778 
Q 568.720575 149.817778 538.072757 149.817778 
L 538.072757 149.817778 
Q 533.87195 146.317778 529.671142 142.817778 
Q 533.87195 139.317778 538.072757 135.817778 
L 538.072757 135.817778 
Q 568.720575 135.817778 599.368393 135.817778 
L 599.368393 149.817778 
z
" clip-path="url(#pebf448e209)" style="fill: #7245dc; stroke: #000000; stroke-linecap: round"/>
   </g>
   <g id="patch_6">
    <path d="M 396.499609 149.817778 
Q 394.478403 149.817778 392.457197 149.817778 
L 392.457197 149.817778 
Q 389.944525 146.317778 387.431854 142.817778 
Q 389.944525 139.317778 392.457197 135.817778 
L 392.457197 135.817778 
Q 394.478403 135.817778 396.499609 135.817778 
L 396.499609 149.817778 
z
" clip-path="url(#pebf448e209)" style="fill: #7245dc; stroke: #000000; stroke-linecap: round"/>
   </g>
   <g id="patch_7">
    <path d="M 529.315544 149.817778 
Q 528.126599 149.817778 526.937654 149.817778 
L 526.937654 149.817778 
Q 525.459612 146.317778 523.98157 142.817778 
Q 525.459612 139.317778 526.937654 135.817778 
L 526.937654 135.817778 
Q 528.126599 135.817778 529.315544 135.817778 
L 529.315544 149.817778 
z
" clip-path="url(#pebf448e209)" style="fill: #7245dc; stroke: #000000; stroke-linecap: round"/>
   </g>
   <g id="patch_8">
    <path d="M 194.875418 116.813333 
Q 194.557325 116.813333 194.239231 116.813333 
L 194.239231 116.813333 
Q 193.846128 113.313333 193.453025 109.813333 
Q 193.846128 106.313333 194.239231 102.813333 
L 194.239231 102.813333 
Q 194.557325 102.813333 194.875418 102.813333 
L 194.875418 116.813333 
z
" clip-path="url(#pebf448e209)" style="fill: #7245dc; stroke: #000000; stroke-linecap: round"/>
   </g>
   <g id="patch_9">
    <path d="M 681.333782 116.813333 
Q 681.015689 116.813333 680.697595 116.813333 
L 680.697595 116.813333 
Q 680.304492 113.313333 679.911389 109.813333 
Q 680.304492 106.313333 680.697595 102.813333 
L 680.697595 102.813333 
Q 681.015689 102.813333 681.333782 102.813333 
L 681.333782 116.813333 
z
" clip-path="url(#pebf448e209)" style="fill: #7245dc; stroke: #000000; stroke-linecap: round"/>
   </g>
   <g id="patch_10">
    <path d="M 627.994049 149.817778 
Q 627.675956 149.817778 627.357862 149.817778 
L 627.357862 149.817778 
Q 626.964759 146.317778 626.571657 142.817778 
Q 626.964759 139.317778 627.357862 135.817778 
L 627.357862 135.817778 
Q 627.675956 135.817778 627.994049 135.817778 
L 627.994049 149.817778 
z
" clip-path="url(#pebf448e209)" style="fill: #7245dc; stroke: #000000; stroke-linecap: round"/>
   </g>
   <g id="patch_11">
    <path d="M 368.762947 135.817778 
Q 369.081041 135.817778 369.399135 135.817778 
L 369.399135 135.817778 
Q 369.792238 139.317778 370.18534 142.817778 
Q 369.792238 146.317778 369.399135 149.817778 
L 369.399135 149.817778 
Q 369.081041 149.817778 368.762947 149.817778 
L 368.762947 135.817778 
z
" clip-path="url(#pebf448e209)" style="fill: #7245dc; stroke: #000000; stroke-linecap: round"/>
   </g>
   <g id="patch_12">
    <path d="M 67.926854 149.817778 
Q 67.647307 149.817778 67.367759 149.817778 
L 67.367759 149.817778 
Q 67.02501 146.317778 66.68226 142.817778 
Q 67.02501 139.317778 67.367759 135.817778 
L 67.367759 135.817778 
Q 67.647307 135.817778 67.926854 135.817778 
L 67.926854 149.817778 
z
" clip-path="url(#pebf448e209)" style="fill: #7245dc; stroke: #000000; stroke-linecap: round"/>
   </g>
   <g id="patch_13">
    <path d="M 352.405429 149.817778 
Q 352.125882 149.817778 351.846335 149.817778 
L 351.846335 149.817778 
Q 351.503585 146.317778 351.160836 142.817778 
Q 351.503585 139.317778 351.846335 135.817778 
L 351.846335 135.817778 
Q 352.125882 135.817778 352.405429 135.817778 
L 352.405429 149.817778 
z
" clip-path="url(#pebf448e209)" style="fill: #7245dc; stroke: #000000; stroke-linecap: round"/>
   </g>
   <g id="patch_14">
    <path d="M 814.683115 149.817778 
Q 814.403567 149.817778 814.12402 149.817778 
L 814.12402 149.817778 
Q 813.78127 146.317778 813.438521 142.817778 
Q 813.78127 139.317778 814.12402 135.817778 
L 814.12402 135.817778 
Q 814.403567 135.817778 814.683115 135.817778 
L 814.683115 149.817778 
z
" clip-path="url(#pebf448e209)" style="fill: #7245dc; stroke: #000000; stroke-linecap: round"/>
   </g>
   <g id="matplotlib.axis_1">
    <g id="xtick_1">
     <g id="line2d_12">
      <defs>
       <path id="ma0451e19f5" d="M 0 0 
L 0 3.5 
" style="stroke: #808080; stroke-width: 0.8"/>
      </defs>
      <g>
       <use xlink:href="#ma0451e19f5" x="849.976238" y="159.32" style="fill: #808080; stroke: #808080; stroke-width: 0.8"/>
      </g>
     </g>
     <g id="text_1">
      <!-- 0 -->
      <g style="fill: #808080" transform="translate(846.794988 173.918438) scale(0.1 -0.1)">
       <defs>
        <path id="DejaVuSans-30" d="M 2034 4250 
Q 1547 4250 1301 3770 
Q 1056 3291 1056 2328 
Q 1056 1369 1301 889 
Q 1547 409 2034 409 
Q 2525 409 2770 889 
Q 3016 1369 3016 2328 
Q 3016 3291 2770 3770 
Q 2525 4250 2034 4250 
z
M 2034 4750 
Q 2819 4750 3233 4129 
Q 3647 3509 3647 2328 
Q 3647 1150 3233 529 
Q 2819 -91 2034 -91 
Q 1250 -91 836 529 
Q 422 1150 422 2328 
Q 422 3509 836 4129 
Q 1250 4750 2034 4750 
z
" transform="scale(0.015625)"/>
       </defs>
       <use xlink:href="#DejaVuSans-30"/>
      </g>
     </g>
    </g>
    <g id="xtick_2">
     <g id="line2d_13">
      <g>
       <use xlink:href="#ma0451e19f5" x="761.076683" y="159.32" style="fill: #808080; stroke: #808080; stroke-width: 0.8"/>
      </g>
     </g>
     <g id="text_2">
      <!-- 500 -->
      <g style="fill: #808080" transform="translate(751.532933 173.918438) scale(0.1 -0.1)">
       <defs>
        <path id="DejaVuSans-35" d="M 691 4666 
L 3169 4666 
L 3169 4134 
L 1269 4134 
L 1269 2991 
Q 1406 3038 1543 3061 
Q 1681 3084 1819 3084 
Q 2600 3084 3056 2656 
Q 3513 2228 3513 1497 
Q 3513 744 3044 326 
Q 2575 -91 1722 -91 
Q 1428 -91 1123 -41 
Q 819 9 494 109 
L 494 744 
Q 775 591 1075 516 
Q 1375 441 1709 441 
Q 2250 441 2565 725 
Q 2881 1009 2881 1497 
Q 2881 1984 2565 2268 
Q 2250 2553 1709 2553 
Q 1456 2553 1204 2497 
Q 953 2441 691 2322 
L 691 4666 
z
" transform="scale(0.015625)"/>
       </defs>
       <use xlink:href="#DejaVuSans-35"/>
       <use xlink:href="#DejaVuSans-30" x="63.623047"/>
       <use xlink:href="#DejaVuSans-30" x="127.246094"/>
      </g>
     </g>
    </g>
    <g id="xtick_3">
     <g id="line2d_14">
      <g>
       <use xlink:href="#ma0451e19f5" x="672.177128" y="159.32" style="fill: #808080; stroke: #808080; stroke-width: 0.8"/>
      </g>
     </g>
     <g id="text_3">
      <!-- 1,000 -->
      <g style="fill: #808080" transform="translate(657.863066 173.918438) scale(0.1 -0.1)">
       <defs>
        <path id="DejaVuSans-31" d="M 794 531 
L 1825 531 
L 1825 4091 
L 703 3866 
L 703 4441 
L 1819 4666 
L 2450 4666 
L 2450 531 
L 3481 531 
L 3481 0 
L 794 0 
L 794 531 
z
" transform="scale(0.015625)"/>
        <path id="DejaVuSans-2c" d="M 750 794 
L 1409 794 
L 1409 256 
L 897 -744 
L 494 -744 
L 750 256 
L 750 794 
z
" transform="scale(0.015625)"/>
       </defs>
       <use xlink:href="#DejaVuSans-31"/>
       <use xlink:href="#DejaVuSans-2c" x="63.623047"/>
       <use xlink:href="#DejaVuSans-30" x="95.410156"/>
       <use xlink:href="#DejaVuSans-30" x="159.033203"/>
       <use xlink:href="#DejaVuSans-30" x="222.65625"/>
      </g>
     </g>
    </g>
    <g id="xtick_4">
     <g id="line2d_15">
      <g>
       <use xlink:href="#ma0451e19f5" x="583.277573" y="159.32" style="fill: #808080; stroke: #808080; stroke-width: 0.8"/>
      </g>
     </g>
     <g id="text_4">
      <!-- 1,500 -->
      <g style="fill: #808080" transform="translate(568.963511 173.918438) scale(0.1 -0.1)">
       <use xlink:href="#DejaVuSans-31"/>
       <use xlink:href="#DejaVuSans-2c" x="63.623047"/>
       <use xlink:href="#DejaVuSans-35" x="95.410156"/>
       <use xlink:href="#DejaVuSans-30" x="159.033203"/>
       <use xlink:href="#DejaVuSans-30" x="222.65625"/>
      </g>
     </g>
    </g>
    <g id="xtick_5">
     <g id="line2d_16">
      <g>
       <use xlink:href="#ma0451e19f5" x="494.378018" y="159.32" style="fill: #808080; stroke: #808080; stroke-width: 0.8"/>
      </g>
     </g>
     <g id="text_5">
      <!-- 2,000 -->
      <g style="fill: #808080" transform="translate(480.063956 173.918438) scale(0.1 -0.1)">
       <defs>
        <path id="DejaVuSans-32" d="M 1228 531 
L 3431 531 
L 3431 0 
L 469 0 
L 469 531 
Q 828 903 1448 1529 
Q 2069 2156 2228 2338 
Q 2531 2678 2651 2914 
Q 2772 3150 2772 3378 
Q 2772 3750 2511 3984 
Q 2250 4219 1831 4219 
Q 1534 4219 1204 4116 
Q 875 4013 500 3803 
L 500 4441 
Q 881 4594 1212 4672 
Q 1544 4750 1819 4750 
Q 2544 4750 2975 4387 
Q 3406 4025 3406 3419 
Q 3406 3131 3298 2873 
Q 3191 2616 2906 2266 
Q 2828 2175 2409 1742 
Q 1991 1309 1228 531 
z
" transform="scale(0.015625)"/>
       </defs>
       <use xlink:href="#DejaVuSans-32"/>
       <use xlink:href="#DejaVuSans-2c" x="63.623047"/>
       <use xlink:href="#DejaVuSans-30" x="95.410156"/>
       <use xlink:href="#DejaVuSans-30" x="159.033203"/>
       <use xlink:href="#DejaVuSans-30" x="222.65625"/>
      </g>
     </g>
    </g>
    <g id="xtick_6">
     <g id="line2d_17">
      <g>
       <use xlink:href="#ma0451e19f5" x="405.478464" y="159.32" style="fill: #808080; stroke: #808080; stroke-width: 0.8"/>
      </g>
     </g>
     <g id="text_6">
      <!-- 2,500 -->
      <g style="fill: #808080" transform="translate(391.164401 173.918438) scale(0.1 -0.1)">
       <use xlink:href="#DejaVuSans-32"/>
       <use xlink:href="#DejaVuSans-2c" x="63.623047"/>
       <use xlink:href="#DejaVuSans-35" x="95.410156"/>
       <use xlink:href="#DejaVuSans-30" x="159.033203"/>
       <use xlink:href="#DejaVuSans-30" x="222.65625"/>
      </g>
     </g>
    </g>
    <g id="xtick_7">
     <g id="line2d_18">
      <g>
       <use xlink:href="#ma0451e19f5" x="316.578909" y="159.32" style="fill: #808080; stroke: #808080; stroke-width: 0.8"/>
      </g>
     </g>
     <g id="text_7">
      <!-- 3,000 -->
      <g style="fill: #808080" transform="translate(302.264846 173.918438) scale(0.1 -0.1)">
       <defs>
        <path id="DejaVuSans-33" d="M 2597 2516 
Q 3050 2419 3304 2112 
Q 3559 1806 3559 1356 
Q 3559 666 3084 287 
Q 2609 -91 1734 -91 
Q 1441 -91 1130 -33 
Q 819 25 488 141 
L 488 750 
Q 750 597 1062 519 
Q 1375 441 1716 441 
Q 2309 441 2620 675 
Q 2931 909 2931 1356 
Q 2931 1769 2642 2001 
Q 2353 2234 1838 2234 
L 1294 2234 
L 1294 2753 
L 1863 2753 
Q 2328 2753 2575 2939 
Q 2822 3125 2822 3475 
Q 2822 3834 2567 4026 
Q 2313 4219 1838 4219 
Q 1578 4219 1281 4162 
Q 984 4106 628 3988 
L 628 4550 
Q 988 4650 1302 4700 
Q 1616 4750 1894 4750 
Q 2613 4750 3031 4423 
Q 3450 4097 3450 3541 
Q 3450 3153 3228 2886 
Q 3006 2619 2597 2516 
z
" transform="scale(0.015625)"/>
       </defs>
       <use xlink:href="#DejaVuSans-33"/>
       <use xlink:href="#DejaVuSans-2c" x="63.623047"/>
       <use xlink:href="#DejaVuSans-30" x="95.410156"/>
       <use xlink:href="#DejaVuSans-30" x="159.033203"/>
       <use xlink:href="#DejaVuSans-30" x="222.65625"/>
      </g>
     </g>
    </g>
    <g id="xtick_8">
     <g id="line2d_19">
      <g>
       <use xlink:href="#ma0451e19f5" x="227.679354" y="159.32" style="fill: #808080; stroke: #808080; stroke-width: 0.8"/>
      </g>
     </g>
     <g id="text_8">
      <!-- 3,500 -->
      <g style="fill: #808080" transform="translate(213.365291 173.918438) scale(0.1 -0.1)">
       <use xlink:href="#DejaVuSans-33"/>
       <use xlink:href="#DejaVuSans-2c" x="63.623047"/>
       <use xlink:href="#DejaVuSans-35" x="95.410156"/>
       <use xlink:href="#DejaVuSans-30" x="159.033203"/>
       <use xlink:href="#DejaVuSans-30" x="222.65625"/>
      </g>
     </g>
    </g>
    <g id="xtick_9">
     <g id="line2d_20">
      <g>
       <use xlink:href="#ma0451e19f5" x="138.779799" y="159.32" style="fill: #808080; stroke: #808080; stroke-width: 0.8"/>
      </g>
     </g>
     <g id="text_9">
      <!-- 4,000 -->
      <g style="fill: #808080" transform="translate(124.465737 173.918438) scale(0.1 -0.1)">
       <defs>
        <path id="DejaVuSans-34" d="M 2419 4116 
L 825 1625 
L 2419 1625 
L 2419 4116 
z
M 2253 4666 
L 3047 4666 
L 3047 1625 
L 3713 1625 
L 3713 1100 
L 3047 1100 
L 3047 0 
L 2419 0 
L 2419 1100 
L 313 1100 
L 313 1709 
L 2253 4666 
z
" transform="scale(0.015625)"/>
       </defs>
       <use xlink:href="#DejaVuSans-34"/>
       <use xlink:href="#DejaVuSans-2c" x="63.623047"/>
       <use xlink:href="#DejaVuSans-30" x="95.410156"/>
       <use xlink:href="#DejaVuSans-30" x="159.033203"/>
       <use xlink:href="#DejaVuSans-30" x="222.65625"/>
      </g>
     </g>
    </g>
    <g id="xtick_10">
     <g id="line2d_21">
      <g>
       <use xlink:href="#ma0451e19f5" x="49.880244" y="159.32" style="fill: #808080; stroke: #808080; stroke-width: 0.8"/>
      </g>
     </g>
     <g id="text_10">
      <!-- 4,500 -->
      <g style="fill: #808080" transform="translate(35.566182 173.918438) scale(0.1 -0.1)">
       <use xlink:href="#DejaVuSans-34"/>
       <use xlink:href="#DejaVuSans-2c" x="63.623047"/>
       <use xlink:href="#DejaVuSans-35" x="95.410156"/>
       <use xlink:href="#DejaVuSans-30" x="159.033203"/>
       <use xlink:href="#DejaVuSans-30" x="222.65625"/>
      </g>
     </g>
    </g>
   </g>
   <g id="text_11">
    <!-- Gene aaCI -->
    <g style="fill: #ffffff" transform="translate(165.963264 145.85309) scale(0.11 -0.11)">
     <defs>
      <path id="DejaVuSans-47" d="M 3809 666 
L 3809 1919 
L 2778 1919 
L 2778 2438 
L 4434 2438 
L 4434 434 
Q 4069 175 3628 42 
Q 3188 -91 2688 -91 
Q 1594 -91 976 548 
Q 359 1188 359 2328 
Q 359 3472 976 4111 
Q 1594 4750 2688 4750 
Q 3144 4750 3555 4637 
Q 3966 4525 4313 4306 
L 4313 3634 
Q 3963 3931 3569 4081 
Q 3175 4231 2741 4231 
Q 1884 4231 1454 3753 
Q 1025 3275 1025 2328 
Q 1025 1384 1454 906 
Q 1884 428 2741 428 
Q 3075 428 3337 486 
Q 3600 544 3809 666 
z
" transform="scale(0.015625)"/>
      <path id="DejaVuSans-65" d="M 3597 1894 
L 3597 1613 
L 953 1613 
Q 991 1019 1311 708 
Q 1631 397 2203 397 
Q 2534 397 2845 478 
Q 3156 559 3463 722 
L 3463 178 
Q 3153 47 2828 -22 
Q 2503 -91 2169 -91 
Q 1331 -91 842 396 
Q 353 884 353 1716 
Q 353 2575 817 3079 
Q 1281 3584 2069 3584 
Q 2775 3584 3186 3129 
Q 3597 2675 3597 1894 
z
M 3022 2063 
Q 3016 2534 2758 2815 
Q 2500 3097 2075 3097 
Q 1594 3097 1305 2825 
Q 1016 2553 972 2059 
L 3022 2063 
z
" transform="scale(0.015625)"/>
      <path id="DejaVuSans-6e" d="M 3513 2113 
L 3513 0 
L 2938 0 
L 2938 2094 
Q 2938 2591 2744 2837 
Q 2550 3084 2163 3084 
Q 1697 3084 1428 2787 
Q 1159 2491 1159 1978 
L 1159 0 
L 581 0 
L 581 3500 
L 1159 3500 
L 1159 2956 
Q 1366 3272 1645 3428 
Q 1925 3584 2291 3584 
Q 2894 3584 3203 3211 
Q 3513 2838 3513 2113 
z
" transform="scale(0.015625)"/>
      <path id="DejaVuSans-20" transform="scale(0.015625)"/>
      <path id="DejaVuSans-61" d="M 2194 1759 
Q 1497 1759 1228 1600 
Q 959 1441 959 1056 
Q 959 750 1161 570 
Q 1363 391 1709 391 
Q 2188 391 2477 730 
Q 2766 1069 2766 1631 
L 2766 1759 
L 2194 1759 
z
M 3341 1997 
L 3341 0 
L 2766 0 
L 2766 531 
Q 2569 213 2275 61 
Q 1981 -91 1556 -91 
Q 1019 -91 701 211 
Q 384 513 384 1019 
Q 384 1609 779 1909 
Q 1175 2209 1959 2209 
L 2766 2209 
L 2766 2266 
Q 2766 2663 2505 2880 
Q 2244 3097 1772 3097 
Q 1472 3097 1187 3025 
Q 903 2953 641 2809 
L 641 3341 
Q 956 3463 1253 3523 
Q 1550 3584 1831 3584 
Q 2591 3584 2966 3190 
Q 3341 2797 3341 1997 
z
" transform="scale(0.015625)"/>
      <path id="DejaVuSans-43" d="M 4122 4306 
L 4122 3641 
Q 3803 3938 3442 4084 
Q 3081 4231 2675 4231 
Q 1875 4231 1450 3742 
Q 1025 3253 1025 2328 
Q 1025 1406 1450 917 
Q 1875 428 2675 428 
Q 3081 428 3442 575 
Q 3803 722 4122 1019 
L 4122 359 
Q 3791 134 3420 21 
Q 3050 -91 2638 -91 
Q 1578 -91 968 557 
Q 359 1206 359 2328 
Q 359 3453 968 4101 
Q 1578 4750 2638 4750 
Q 3056 4750 3426 4639 
Q 3797 4528 4122 4306 
z
" transform="scale(0.015625)"/>
      <path id="DejaVuSans-49" d="M 628 4666 
L 1259 4666 
L 1259 0 
L 628 0 
L 628 4666 
z
" transform="scale(0.015625)"/>
     </defs>
     <use xlink:href="#DejaVuSans-47"/>
     <use xlink:href="#DejaVuSans-65" x="77.490234"/>
     <use xlink:href="#DejaVuSans-6e" x="139.013672"/>
     <use xlink:href="#DejaVuSans-65" x="202.392578"/>
     <use xlink:href="#DejaVuSans-20" x="263.916016"/>
     <use xlink:href="#DejaVuSans-61" x="295.703125"/>
     <use xlink:href="#DejaVuSans-61" x="356.982422"/>
     <use xlink:href="#DejaVuSans-43" x="418.261719"/>
     <use xlink:href="#DejaVuSans-49" x="488.085938"/>
    </g>
   </g>
   <g id="text_12">
    <!-- Gene aaCI -->
    <g style="fill: #ffffff" transform="translate(686.02566 145.85309) scale(0.11 -0.11)">
     <use xlink:href="#DejaVuSans-47"/>
     <use xlink:href="#DejaVuSans-65" x="77.490234"/>
     <use xlink:href="#DejaVuSans-6e" x="139.013672"/>
     <use xlink:href="#DejaVuSans-65" x="202.392578"/>
     <use xlink:href="#DejaVuSans-20" x="263.916016"/>
     <use xlink:href="#DejaVuSans-61" x="295.703125"/>
     <use xlink:href="#DejaVuSans-61" x="356.982422"/>
     <use xlink:href="#DejaVuSans-43" x="418.261719"/>
     <use xlink:href="#DejaVuSans-49" x="488.085938"/>
    </g>
   </g>
   <g id="text_13">
    <!-- Gene kanR -->
    <g style="fill: #ffffff" transform="translate(430.210589 145.85309) scale(0.11 -0.11)">
     <defs>
      <path id="DejaVuSans-6b" d="M 581 4863 
L 1159 4863 
L 1159 1991 
L 2875 3500 
L 3609 3500 
L 1753 1863 
L 3688 0 
L 2938 0 
L 1159 1709 
L 1159 0 
L 581 0 
L 581 4863 
z
" transform="scale(0.015625)"/>
      <path id="DejaVuSans-52" d="M 2841 2188 
Q 3044 2119 3236 1894 
Q 3428 1669 3622 1275 
L 4263 0 
L 3584 0 
L 2988 1197 
Q 2756 1666 2539 1819 
Q 2322 1972 1947 1972 
L 1259 1972 
L 1259 0 
L 628 0 
L 628 4666 
L 2053 4666 
Q 2853 4666 3247 4331 
Q 3641 3997 3641 3322 
Q 3641 2881 3436 2590 
Q 3231 2300 2841 2188 
z
M 1259 4147 
L 1259 2491 
L 2053 2491 
Q 2509 2491 2742 2702 
Q 2975 2913 2975 3322 
Q 2975 3731 2742 3939 
Q 2509 4147 2053 4147 
L 1259 4147 
z
" transform="scale(0.015625)"/>
     </defs>
     <use xlink:href="#DejaVuSans-47"/>
     <use xlink:href="#DejaVuSans-65" x="77.490234"/>
     <use xlink:href="#DejaVuSans-6e" x="139.013672"/>
     <use xlink:href="#DejaVuSans-65" x="202.392578"/>
     <use xlink:href="#DejaVuSans-20" x="263.916016"/>
     <use xlink:href="#DejaVuSans-6b" x="295.703125"/>
     <use xlink:href="#DejaVuSans-61" x="351.863281"/>
     <use xlink:href="#DejaVuSans-6e" x="413.142578"/>
     <use xlink:href="#DejaVuSans-52" x="476.521484"/>
    </g>
   </g>
   <g id="text_14">
    <g id="patch_15">
     <path d="M 535.526173 118.436302 
L 593.513361 118.436302 
Q 596.813361 118.436302 596.813361 115.136302 
L 596.813361 104.490365 
Q 596.813361 101.190365 593.513361 101.190365 
L 535.526173 101.190365 
Q 532.226173 101.190365 532.226173 104.490365 
L 532.226173 115.136302 
Q 532.226173 118.436302 535.526173 118.436302 
z
" style="fill: #efeafb; stroke: #808080; stroke-width: 0.3; stroke-linejoin: miter"/>
    </g>
    <!-- Gene barK -->
    <g transform="translate(535.526173 112.848646) scale(0.11 -0.11)">
     <defs>
      <path id="DejaVuSans-62" d="M 3116 1747 
Q 3116 2381 2855 2742 
Q 2594 3103 2138 3103 
Q 1681 3103 1420 2742 
Q 1159 2381 1159 1747 
Q 1159 1113 1420 752 
Q 1681 391 2138 391 
Q 2594 391 2855 752 
Q 3116 1113 3116 1747 
z
M 1159 2969 
Q 1341 3281 1617 3432 
Q 1894 3584 2278 3584 
Q 2916 3584 3314 3078 
Q 3713 2572 3713 1747 
Q 3713 922 3314 415 
Q 2916 -91 2278 -91 
Q 1894 -91 1617 61 
Q 1341 213 1159 525 
L 1159 0 
L 581 0 
L 581 4863 
L 1159 4863 
L 1159 2969 
z
" transform="scale(0.015625)"/>
      <path id="DejaVuSans-72" d="M 2631 2963 
Q 2534 3019 2420 3045 
Q 2306 3072 2169 3072 
Q 1681 3072 1420 2755 
Q 1159 2438 1159 1844 
L 1159 0 
L 581 0 
L 581 3500 
L 1159 3500 
L 1159 2956 
Q 1341 3275 1631 3429 
Q 1922 3584 2338 3584 
Q 2397 3584 2469 3576 
Q 2541 3569 2628 3553 
L 2631 2963 
z
" transform="scale(0.015625)"/>
      <path id="DejaVuSans-4b" d="M 628 4666 
L 1259 4666 
L 1259 2694 
L 3353 4666 
L 4166 4666 
L 1850 2491 
L 4331 0 
L 3500 0 
L 1259 2247 
L 1259 0 
L 628 0 
L 628 4666 
z
" transform="scale(0.015625)"/>
     </defs>
     <use xlink:href="#DejaVuSans-47"/>
     <use xlink:href="#DejaVuSans-65" x="77.490234"/>
     <use xlink:href="#DejaVuSans-6e" x="139.013672"/>
     <use xlink:href="#DejaVuSans-65" x="202.392578"/>
     <use xlink:href="#DejaVuSans-20" x="263.916016"/>
     <use xlink:href="#DejaVuSans-62" x="295.703125"/>
     <use xlink:href="#DejaVuSans-61" x="359.179688"/>
     <use xlink:href="#DejaVuSans-72" x="420.458984"/>
     <use xlink:href="#DejaVuSans-4b" x="461.572266"/>
    </g>
   </g>
   <g id="text_15">
    <g id="patch_16">
     <path d="M 347.222372 118.436302 
L 436.709091 118.436302 
Q 440.009091 118.436302 440.009091 115.136302 
L 440.009091 104.490365 
Q 440.009091 101.190365 436.709091 101.190365 
L 347.222372 101.190365 
Q 343.922372 101.190365 343.922372 104.490365 
L 343.922372 115.136302 
Q 343.922372 118.436302 347.222372 118.436302 
z
" style="fill: #efeafb; stroke: #808080; stroke-width: 0.3; stroke-linejoin: miter"/>
    </g>
    <!-- kanR terminator -->
    <g transform="translate(347.222372 112.848646) scale(0.11 -0.11)">
     <defs>
      <path id="DejaVuSans-74" d="M 1172 4494 
L 1172 3500 
L 2356 3500 
L 2356 3053 
L 1172 3053 
L 1172 1153 
Q 1172 725 1289 603 
Q 1406 481 1766 481 
L 2356 481 
L 2356 0 
L 1766 0 
Q 1100 0 847 248 
Q 594 497 594 1153 
L 594 3053 
L 172 3053 
L 172 3500 
L 594 3500 
L 594 4494 
L 1172 4494 
z
" transform="scale(0.015625)"/>
      <path id="DejaVuSans-6d" d="M 3328 2828 
Q 3544 3216 3844 3400 
Q 4144 3584 4550 3584 
Q 5097 3584 5394 3201 
Q 5691 2819 5691 2113 
L 5691 0 
L 5113 0 
L 5113 2094 
Q 5113 2597 4934 2840 
Q 4756 3084 4391 3084 
Q 3944 3084 3684 2787 
Q 3425 2491 3425 1978 
L 3425 0 
L 2847 0 
L 2847 2094 
Q 2847 2600 2669 2842 
Q 2491 3084 2119 3084 
Q 1678 3084 1418 2786 
Q 1159 2488 1159 1978 
L 1159 0 
L 581 0 
L 581 3500 
L 1159 3500 
L 1159 2956 
Q 1356 3278 1631 3431 
Q 1906 3584 2284 3584 
Q 2666 3584 2933 3390 
Q 3200 3197 3328 2828 
z
" transform="scale(0.015625)"/>
      <path id="DejaVuSans-69" d="M 603 3500 
L 1178 3500 
L 1178 0 
L 603 0 
L 603 3500 
z
M 603 4863 
L 1178 4863 
L 1178 4134 
L 603 4134 
L 603 4863 
z
" transform="scale(0.015625)"/>
      <path id="DejaVuSans-6f" d="M 1959 3097 
Q 1497 3097 1228 2736 
Q 959 2375 959 1747 
Q 959 1119 1226 758 
Q 1494 397 1959 397 
Q 2419 397 2687 759 
Q 2956 1122 2956 1747 
Q 2956 2369 2687 2733 
Q 2419 3097 1959 3097 
z
M 1959 3584 
Q 2709 3584 3137 3096 
Q 3566 2609 3566 1747 
Q 3566 888 3137 398 
Q 2709 -91 1959 -91 
Q 1206 -91 779 398 
Q 353 888 353 1747 
Q 353 2609 779 3096 
Q 1206 3584 1959 3584 
z
" transform="scale(0.015625)"/>
     </defs>
     <use xlink:href="#DejaVuSans-6b"/>
     <use xlink:href="#DejaVuSans-61" x="56.160156"/>
     <use xlink:href="#DejaVuSans-6e" x="117.439453"/>
     <use xlink:href="#DejaVuSans-52" x="180.818359"/>
     <use xlink:href="#DejaVuSans-20" x="250.300781"/>
     <use xlink:href="#DejaVuSans-74" x="282.087891"/>
     <use xlink:href="#DejaVuSans-65" x="321.296875"/>
     <use xlink:href="#DejaVuSans-72" x="382.820312"/>
     <use xlink:href="#DejaVuSans-6d" x="422.183594"/>
     <use xlink:href="#DejaVuSans-69" x="519.595703"/>
     <use xlink:href="#DejaVuSans-6e" x="547.378906"/>
     <use xlink:href="#DejaVuSans-61" x="610.757812"/>
     <use xlink:href="#DejaVuSans-74" x="672.037109"/>
     <use xlink:href="#DejaVuSans-6f" x="711.246094"/>
     <use xlink:href="#DejaVuSans-72" x="772.427734"/>
    </g>
   </g>
   <g id="text_16">
    <g id="patch_17">
     <path d="M 501.130276 85.431858 
L 552.166838 85.431858 
Q 555.466838 85.431858 555.466838 82.131858 
L 555.466838 71.48592 
Q 555.466838 68.18592 552.166838 68.18592 
L 501.130276 68.18592 
Q 497.830276 68.18592 497.830276 71.48592 
L 497.830276 82.131858 
Q 497.830276 85.431858 501.130276 85.431858 
z
" style="fill: #efeafb; stroke: #808080; stroke-width: 0.3; stroke-linejoin: miter"/>
    </g>
    <!-- promoter -->
    <g transform="translate(501.130276 79.844201) scale(0.11 -0.11)">
     <defs>
      <path id="DejaVuSans-70" d="M 1159 525 
L 1159 -1331 
L 581 -1331 
L 581 3500 
L 1159 3500 
L 1159 2969 
Q 1341 3281 1617 3432 
Q 1894 3584 2278 3584 
Q 2916 3584 3314 3078 
Q 3713 2572 3713 1747 
Q 3713 922 3314 415 
Q 2916 -91 2278 -91 
Q 1894 -91 1617 61 
Q 1341 213 1159 525 
z
M 3116 1747 
Q 3116 2381 2855 2742 
Q 2594 3103 2138 3103 
Q 1681 3103 1420 2742 
Q 1159 2381 1159 1747 
Q 1159 1113 1420 752 
Q 1681 391 2138 391 
Q 2594 391 2855 752 
Q 3116 1113 3116 1747 
z
" transform="scale(0.015625)"/>
     </defs>
     <use xlink:href="#DejaVuSans-70"/>
     <use xlink:href="#DejaVuSans-72" x="63.476562"/>
     <use xlink:href="#DejaVuSans-6f" x="102.339844"/>
     <use xlink:href="#DejaVuSans-6d" x="163.521484"/>
     <use xlink:href="#DejaVuSans-6f" x="260.933594"/>
     <use xlink:href="#DejaVuSans-74" x="322.115234"/>
     <use xlink:href="#DejaVuSans-65" x="361.324219"/>
     <use xlink:href="#DejaVuSans-72" x="422.847656"/>
    </g>
   </g>
   <g id="text_17">
    <g id="patch_18">
     <path d="M 171.466409 85.431858 
L 216.862034 85.431858 
Q 220.162034 85.431858 220.162034 82.131858 
L 220.162034 71.48592 
Q 220.162034 68.18592 216.862034 68.18592 
L 171.466409 68.18592 
Q 168.166409 68.18592 168.166409 71.48592 
L 168.166409 82.131858 
Q 168.166409 85.431858 171.466409 85.431858 
z
" style="fill: #efeafb; stroke: #808080; stroke-width: 0.3; stroke-linejoin: miter"/>
    </g>
    <!-- AarI site -->
    <g transform="translate(171.466409 79.844201) scale(0.11 -0.11)">
     <defs>
      <path id="DejaVuSans-41" d="M 2188 4044 
L 1331 1722 
L 3047 1722 
L 2188 4044 
z
M 1831 4666 
L 2547 4666 
L 4325 0 
L 3669 0 
L 3244 1197 
L 1141 1197 
L 716 0 
L 50 0 
L 1831 4666 
z
" transform="scale(0.015625)"/>
      <path id="DejaVuSans-73" d="M 2834 3397 
L 2834 2853 
Q 2591 2978 2328 3040 
Q 2066 3103 1784 3103 
Q 1356 3103 1142 2972 
Q 928 2841 928 2578 
Q 928 2378 1081 2264 
Q 1234 2150 1697 2047 
L 1894 2003 
Q 2506 1872 2764 1633 
Q 3022 1394 3022 966 
Q 3022 478 2636 193 
Q 2250 -91 1575 -91 
Q 1294 -91 989 -36 
Q 684 19 347 128 
L 347 722 
Q 666 556 975 473 
Q 1284 391 1588 391 
Q 1994 391 2212 530 
Q 2431 669 2431 922 
Q 2431 1156 2273 1281 
Q 2116 1406 1581 1522 
L 1381 1569 
Q 847 1681 609 1914 
Q 372 2147 372 2553 
Q 372 3047 722 3315 
Q 1072 3584 1716 3584 
Q 2034 3584 2315 3537 
Q 2597 3491 2834 3397 
z
" transform="scale(0.015625)"/>
     </defs>
     <use xlink:href="#DejaVuSans-41"/>
     <use xlink:href="#DejaVuSans-61" x="68.408203"/>
     <use xlink:href="#DejaVuSans-72" x="129.6875"/>
     <use xlink:href="#DejaVuSans-49" x="170.800781"/>
     <use xlink:href="#DejaVuSans-20" x="200.292969"/>
     <use xlink:href="#DejaVuSans-73" x="232.080078"/>
     <use xlink:href="#DejaVuSans-69" x="284.179688"/>
     <use xlink:href="#DejaVuSans-74" x="311.962891"/>
     <use xlink:href="#DejaVuSans-65" x="351.171875"/>
    </g>
   </g>
   <g id="text_18">
    <g id="patch_19">
     <path d="M 650.681101 85.431858 
L 710.56407 85.431858 
Q 713.86407 85.431858 713.86407 82.131858 
L 713.86407 71.48592 
Q 713.86407 68.18592 710.56407 68.18592 
L 650.681101 68.18592 
Q 647.381101 68.18592 647.381101 71.48592 
L 647.381101 82.131858 
Q 647.381101 85.431858 650.681101 85.431858 
z
" style="fill: #efeafb; stroke: #808080; stroke-width: 0.3; stroke-linejoin: miter"/>
    </g>
    <!-- BamHI site -->
    <g transform="translate(650.681101 79.844201) scale(0.11 -0.11)">
     <defs>
      <path id="DejaVuSans-42" d="M 1259 2228 
L 1259 519 
L 2272 519 
Q 2781 519 3026 730 
Q 3272 941 3272 1375 
Q 3272 1813 3026 2020 
Q 2781 2228 2272 2228 
L 1259 2228 
z
M 1259 4147 
L 1259 2741 
L 2194 2741 
Q 2656 2741 2882 2914 
Q 3109 3088 3109 3444 
Q 3109 3797 2882 3972 
Q 2656 4147 2194 4147 
L 1259 4147 
z
M 628 4666 
L 2241 4666 
Q 2963 4666 3353 4366 
Q 3744 4066 3744 3513 
Q 3744 3084 3544 2831 
Q 3344 2578 2956 2516 
Q 3422 2416 3680 2098 
Q 3938 1781 3938 1306 
Q 3938 681 3513 340 
Q 3088 0 2303 0 
L 628 0 
L 628 4666 
z
" transform="scale(0.015625)"/>
      <path id="DejaVuSans-48" d="M 628 4666 
L 1259 4666 
L 1259 2753 
L 3553 2753 
L 3553 4666 
L 4184 4666 
L 4184 0 
L 3553 0 
L 3553 2222 
L 1259 2222 
L 1259 0 
L 628 0 
L 628 4666 
z
" transform="scale(0.015625)"/>
     </defs>
     <use xlink:href="#DejaVuSans-42"/>
     <use xlink:href="#DejaVuSans-61" x="68.603516"/>
     <use xlink:href="#DejaVuSans-6d" x="129.882812"/>
     <use xlink:href="#DejaVuSans-48" x="227.294922"/>
     <use xlink:href="#DejaVuSans-49" x="302.490234"/>
     <use xlink:href="#DejaVuSans-20" x="331.982422"/>
     <use xlink:href="#DejaVuSans-73" x="363.769531"/>
     <use xlink:href="#DejaVuSans-69" x="415.869141"/>
     <use xlink:href="#DejaVuSans-74" x="443.652344"/>
     <use xlink:href="#DejaVuSans-65" x="482.861328"/>
    </g>
   </g>
   <g id="text_19">
    <g id="patch_20">
     <path d="M 604.58504 52.427413 
L 649.980665 52.427413 
Q 653.280665 52.427413 653.280665 49.127413 
L 653.280665 38.481476 
Q 653.280665 35.181476 649.980665 35.181476 
L 604.58504 35.181476 
Q 601.28504 35.181476 601.28504 38.481476 
L 601.28504 49.127413 
Q 601.28504 52.427413 604.58504 52.427413 
z
" style="fill: #efeafb; stroke: #808080; stroke-width: 0.3; stroke-linejoin: miter"/>
    </g>
    <!-- AarI site -->
    <g transform="translate(604.58504 46.839757) scale(0.11 -0.11)">
     <use xlink:href="#DejaVuSans-41"/>
     <use xlink:href="#DejaVuSans-61" x="68.408203"/>
     <use xlink:href="#DejaVuSans-72" x="129.6875"/>
     <use xlink:href="#DejaVuSans-49" x="170.800781"/>
     <use xlink:href="#DejaVuSans-20" x="200.292969"/>
     <use xlink:href="#DejaVuSans-73" x="232.080078"/>
     <use xlink:href="#DejaVuSans-69" x="284.179688"/>
     <use xlink:href="#DejaVuSans-74" x="311.962891"/>
     <use xlink:href="#DejaVuSans-65" x="351.171875"/>
    </g>
   </g>
   <g id="text_20">
    <g id="patch_21">
     <path d="M 346.776331 52.427413 
L 392.171956 52.427413 
Q 395.471956 52.427413 395.471956 49.127413 
L 395.471956 38.481476 
Q 395.471956 35.181476 392.171956 35.181476 
L 346.776331 35.181476 
Q 343.476331 35.181476 343.476331 38.481476 
L 343.476331 49.127413 
Q 343.476331 52.427413 346.776331 52.427413 
z
" style="fill: #efeafb; stroke: #808080; stroke-width: 0.3; stroke-linejoin: miter"/>
    </g>
    <!-- AarI site -->
    <g transform="translate(346.776331 46.839757) scale(0.11 -0.11)">
     <use xlink:href="#DejaVuSans-41"/>
     <use xlink:href="#DejaVuSans-61" x="68.408203"/>
     <use xlink:href="#DejaVuSans-72" x="129.6875"/>
     <use xlink:href="#DejaVuSans-49" x="170.800781"/>
     <use xlink:href="#DejaVuSans-20" x="200.292969"/>
     <use xlink:href="#DejaVuSans-73" x="232.080078"/>
     <use xlink:href="#DejaVuSans-69" x="284.179688"/>
     <use xlink:href="#DejaVuSans-74" x="311.962891"/>
     <use xlink:href="#DejaVuSans-65" x="351.171875"/>
    </g>
   </g>
   <g id="text_21">
    <g id="patch_22">
     <path d="M 41.874791 118.436302 
L 92.734323 118.436302 
Q 96.034323 118.436302 96.034323 115.136302 
L 96.034323 104.490365 
Q 96.034323 101.190365 92.734323 101.190365 
L 41.874791 101.190365 
Q 38.574791 101.190365 38.574791 104.490365 
L 38.574791 115.136302 
Q 38.574791 118.436302 41.874791 118.436302 
z
" style="fill: #efeafb; stroke: #808080; stroke-width: 0.3; stroke-linejoin: miter"/>
    </g>
    <!-- EcorI site -->
    <g transform="translate(41.874791 112.848646) scale(0.11 -0.11)">
     <defs>
      <path id="DejaVuSans-45" d="M 628 4666 
L 3578 4666 
L 3578 4134 
L 1259 4134 
L 1259 2753 
L 3481 2753 
L 3481 2222 
L 1259 2222 
L 1259 531 
L 3634 531 
L 3634 0 
L 628 0 
L 628 4666 
z
" transform="scale(0.015625)"/>
      <path id="DejaVuSans-63" d="M 3122 3366 
L 3122 2828 
Q 2878 2963 2633 3030 
Q 2388 3097 2138 3097 
Q 1578 3097 1268 2742 
Q 959 2388 959 1747 
Q 959 1106 1268 751 
Q 1578 397 2138 397 
Q 2388 397 2633 464 
Q 2878 531 3122 666 
L 3122 134 
Q 2881 22 2623 -34 
Q 2366 -91 2075 -91 
Q 1284 -91 818 406 
Q 353 903 353 1747 
Q 353 2603 823 3093 
Q 1294 3584 2113 3584 
Q 2378 3584 2631 3529 
Q 2884 3475 3122 3366 
z
" transform="scale(0.015625)"/>
     </defs>
     <use xlink:href="#DejaVuSans-45"/>
     <use xlink:href="#DejaVuSans-63" x="63.183594"/>
     <use xlink:href="#DejaVuSans-6f" x="118.164062"/>
     <use xlink:href="#DejaVuSans-72" x="179.345703"/>
     <use xlink:href="#DejaVuSans-49" x="220.458984"/>
     <use xlink:href="#DejaVuSans-20" x="249.951172"/>
     <use xlink:href="#DejaVuSans-73" x="281.738281"/>
     <use xlink:href="#DejaVuSans-69" x="333.837891"/>
     <use xlink:href="#DejaVuSans-74" x="361.621094"/>
     <use xlink:href="#DejaVuSans-65" x="400.830078"/>
    </g>
   </g>
   <g id="text_22">
    <g id="patch_23">
     <path d="M 321.841648 85.431858 
L 381.724617 85.431858 
Q 385.024617 85.431858 385.024617 82.131858 
L 385.024617 71.48592 
Q 385.024617 68.18592 381.724617 68.18592 
L 321.841648 68.18592 
Q 318.541648 68.18592 318.541648 71.48592 
L 318.541648 82.131858 
Q 318.541648 85.431858 321.841648 85.431858 
z
" style="fill: #efeafb; stroke: #808080; stroke-width: 0.3; stroke-linejoin: miter"/>
    </g>
    <!-- BamHI site -->
    <g transform="translate(321.841648 79.844201) scale(0.11 -0.11)">
     <use xlink:href="#DejaVuSans-42"/>
     <use xlink:href="#DejaVuSans-61" x="68.603516"/>
     <use xlink:href="#DejaVuSans-6d" x="129.882812"/>
     <use xlink:href="#DejaVuSans-48" x="227.294922"/>
     <use xlink:href="#DejaVuSans-49" x="302.490234"/>
     <use xlink:href="#DejaVuSans-20" x="331.982422"/>
     <use xlink:href="#DejaVuSans-73" x="363.769531"/>
     <use xlink:href="#DejaVuSans-69" x="415.869141"/>
     <use xlink:href="#DejaVuSans-74" x="443.652344"/>
     <use xlink:href="#DejaVuSans-65" x="482.861328"/>
    </g>
   </g>
   <g id="text_23">
    <g id="patch_24">
     <path d="M 788.631052 118.436302 
L 839.490583 118.436302 
Q 842.790583 118.436302 842.790583 115.136302 
L 842.790583 104.490365 
Q 842.790583 101.190365 839.490583 101.190365 
L 788.631052 101.190365 
Q 785.331052 101.190365 785.331052 104.490365 
L 785.331052 115.136302 
Q 785.331052 118.436302 788.631052 118.436302 
z
" style="fill: #efeafb; stroke: #808080; stroke-width: 0.3; stroke-linejoin: miter"/>
    </g>
    <!-- EcorI site -->
    <g transform="translate(788.631052 112.848646) scale(0.11 -0.11)">
     <use xlink:href="#DejaVuSans-45"/>
     <use xlink:href="#DejaVuSans-63" x="63.183594"/>
     <use xlink:href="#DejaVuSans-6f" x="118.164062"/>
     <use xlink:href="#DejaVuSans-72" x="179.345703"/>
     <use xlink:href="#DejaVuSans-49" x="220.458984"/>
     <use xlink:href="#DejaVuSans-20" x="249.951172"/>
     <use xlink:href="#DejaVuSans-73" x="281.738281"/>
     <use xlink:href="#DejaVuSans-69" x="333.837891"/>
     <use xlink:href="#DejaVuSans-74" x="361.621094"/>
     <use xlink:href="#DejaVuSans-65" x="400.830078"/>
    </g>
   </g>
  </g>
 </g>
 <defs>
  <clipPath id="pebf448e209">
   <rect x="10.8" y="10.8" width="839.318477" height="148.52"/>
  </clipPath>
 </defs>
</svg>
