<?xml version="1.0" encoding="UTF-8" standalone="no"?>
<!DOCTYPE svg PUBLIC "-//W3C//DTD SVG 1.1//EN"
 "http://www.w3.org/Graphics/SVG/1.1/DTD/svg11.dtd">
<!-- Generated by graphviz version 2.38.0 (20140413.2041)
 -->
<!-- Title: snakemake_dag Pages: 1 -->
<svg width="146pt" height="332pt"
 viewBox="0.00 0.00 146.19 332.00" xmlns="http://www.w3.org/2000/svg" xmlns:xlink="http://www.w3.org/1999/xlink">
<g id="graph0" class="graph" transform="scale(1 1) rotate(0) translate(4 328)">
<title>snakemake_dag</title>
<polygon fill="white" stroke="none" points="-4,4 -4,-328 142.189,-328 142.189,4 -4,4"/>
<!-- 0 -->
<g id="node1" class="node"><title>0</title>
<path fill="none" stroke="#56d88a" stroke-width="2" d="M82.958,-36C82.958,-36 52.958,-36 52.958,-36 46.958,-36 40.958,-30 40.958,-24 40.958,-24 40.958,-12 40.958,-12 40.958,-6 46.958,-0 52.958,-0 52.958,-0 82.958,-0 82.958,-0 88.958,-0 94.958,-6 94.958,-12 94.958,-12 94.958,-24 94.958,-24 94.958,-30 88.958,-36 82.958,-36"/>
<text text-anchor="middle" x="67.958" y="-15" font-family="sans" font-size="10.00">all</text>
</g>
<!-- 1 -->
<g id="node2" class="node"><title>1</title>
<path fill="none" stroke="#56c1d8" stroke-width="2" d="M82.958,-180C82.958,-180 52.958,-180 52.958,-180 46.958,-180 40.958,-174 40.958,-168 40.958,-168 40.958,-156 40.958,-156 40.958,-150 46.958,-144 52.958,-144 52.958,-144 82.958,-144 82.958,-144 88.958,-144 94.958,-150 94.958,-156 94.958,-156 94.958,-168 94.958,-168 94.958,-174 88.958,-180 82.958,-180"/>
<text text-anchor="middle" x="67.958" y="-159" font-family="sans" font-size="10.00">call</text>
</g>
<!-- 1&#45;&gt;0 -->
<g id="edge1" class="edge"><title>1&#45;&gt;0</title>
<path fill="none" stroke="grey" stroke-width="2" d="M64.7097,-143.888C62.9122,-133.542 60.8633,-120.063 59.958,-108 58.7606,-92.0449 58.7606,-87.9551 59.958,-72 60.5946,-63.5179 61.7965,-54.3361 63.0788,-46.0356"/>
<polygon fill="grey" stroke="grey" stroke-width="2" points="66.5416,-46.5472 64.7097,-36.1119 59.6343,-45.412 66.5416,-46.5472"/>
</g>
<!-- 2 -->
<g id="node3" class="node"><title>2</title>
<path fill="none" stroke="#d8bc56" stroke-width="2" d="M110.958,-108C110.958,-108 80.958,-108 80.958,-108 74.958,-108 68.958,-102 68.958,-96 68.958,-96 68.958,-84 68.958,-84 68.958,-78 74.958,-72 80.958,-72 80.958,-72 110.958,-72 110.958,-72 116.958,-72 122.958,-78 122.958,-84 122.958,-84 122.958,-96 122.958,-96 122.958,-102 116.958,-108 110.958,-108"/>
<text text-anchor="middle" x="95.958" y="-87" font-family="sans" font-size="10.00">stats</text>
</g>
<!-- 1&#45;&gt;2 -->
<g id="edge5" class="edge"><title>1&#45;&gt;2</title>
<path fill="none" stroke="grey" stroke-width="2" d="M74.8794,-143.697C78.0327,-135.813 81.8363,-126.304 85.3395,-117.546"/>
<polygon fill="grey" stroke="grey" stroke-width="2" points="88.652,-118.689 89.1163,-108.104 82.1526,-116.089 88.652,-118.689"/>
</g>
<!-- 2&#45;&gt;0 -->
<g id="edge2" class="edge"><title>2&#45;&gt;0</title>
<path fill="none" stroke="grey" stroke-width="2" d="M89.0367,-71.6966C85.8833,-63.8132 82.0797,-54.3042 78.5766,-45.5464"/>
<polygon fill="grey" stroke="grey" stroke-width="2" points="81.7634,-44.0892 74.7997,-36.1043 75.264,-46.689 81.7634,-44.0892"/>
</g>
<!-- 3 -->
<g id="node4" class="node"><title>3</title>
<path fill="none" stroke="#d85656" stroke-width="2" d="M45.958,-252C45.958,-252 15.958,-252 15.958,-252 9.95801,-252 3.95801,-246 3.95801,-240 3.95801,-240 3.95801,-228 3.95801,-228 3.95801,-222 9.95801,-216 15.958,-216 15.958,-216 45.958,-216 45.958,-216 51.958,-216 57.958,-222 57.958,-228 57.958,-228 57.958,-240 57.958,-240 57.958,-246 51.958,-252 45.958,-252"/>
<text text-anchor="middle" x="30.958" y="-231" font-family="sans" font-size="10.00">sort</text>
</g>
<!-- 3&#45;&gt;1 -->
<g id="edge3" class="edge"><title>3&#45;&gt;1</title>
<path fill="none" stroke="grey" stroke-width="2" d="M40.1041,-215.697C44.3607,-207.644 49.5138,-197.894 54.2244,-188.982"/>
<polygon fill="grey" stroke="grey" stroke-width="2" points="57.3384,-190.581 58.9171,-180.104 51.1497,-187.31 57.3384,-190.581"/>
</g>
<!-- 4 -->
<g id="node5" class="node"><title>4</title>
<path fill="none" stroke="#d85656" stroke-width="2" d="M120.958,-252C120.958,-252 90.958,-252 90.958,-252 84.958,-252 78.958,-246 78.958,-240 78.958,-240 78.958,-228 78.958,-228 78.958,-222 84.958,-216 90.958,-216 90.958,-216 120.958,-216 120.958,-216 126.958,-216 132.958,-222 132.958,-228 132.958,-228 132.958,-240 132.958,-240 132.958,-246 126.958,-252 120.958,-252"/>
<text text-anchor="middle" x="105.958" y="-231" font-family="sans" font-size="10.00">sort</text>
</g>
<!-- 4&#45;&gt;1 -->
<g id="edge4" class="edge"><title>4&#45;&gt;1</title>
<path fill="none" stroke="grey" stroke-width="2" d="M96.5647,-215.697C92.1931,-207.644 86.9007,-197.894 82.0628,-188.982"/>
<polygon fill="grey" stroke="grey" stroke-width="2" points="85.0902,-187.223 77.2432,-180.104 78.9382,-190.563 85.0902,-187.223"/>
</g>
<!-- 5 -->
<g id="node6" class="node"><title>5</title>
<path fill="none" stroke="#88d856" stroke-width="2" d="M47.8741,-324C47.8741,-324 12.0419,-324 12.0419,-324 6.04193,-324 0.0419334,-318 0.0419334,-312 0.0419334,-312 0.0419334,-300 0.0419334,-300 0.0419334,-294 6.04193,-288 12.0419,-288 12.0419,-288 47.8741,-288 47.8741,-288 53.8741,-288 59.8741,-294 59.8741,-300 59.8741,-300 59.8741,-312 59.8741,-312 59.8741,-318 53.8741,-324 47.8741,-324"/>
<text text-anchor="middle" x="29.958" y="-308" font-family="sans" font-size="10.00">bwa</text>
<text text-anchor="middle" x="29.958" y="-298" font-family="sans" font-size="10.00">sample: A</text>
</g>
<!-- 5&#45;&gt;3 -->
<g id="edge6" class="edge"><title>5&#45;&gt;3</title>
<path fill="none" stroke="grey" stroke-width="2" d="M30.2052,-287.697C30.3154,-279.983 30.4478,-270.712 30.5707,-262.112"/>
<polygon fill="grey" stroke="grey" stroke-width="2" points="34.0704,-262.153 30.7137,-252.104 27.0711,-262.053 34.0704,-262.153"/>
</g>
<!-- 6 -->
<g id="node7" class="node"><title>6</title>
<path fill="none" stroke="#88d856" stroke-width="2" d="M126.423,-324C126.423,-324 89.4933,-324 89.4933,-324 83.4933,-324 77.4933,-318 77.4933,-312 77.4933,-312 77.4933,-300 77.4933,-300 77.4933,-294 83.4933,-288 89.4933,-288 89.4933,-288 126.423,-288 126.423,-288 132.423,-288 138.423,-294 138.423,-300 138.423,-300 138.423,-312 138.423,-312 138.423,-318 132.423,-324 126.423,-324"/>
<text text-anchor="middle" x="107.958" y="-308" font-family="sans" font-size="10.00">bwa</text>
<text text-anchor="middle" x="107.958" y="-298" font-family="sans" font-size="10.00">sample: B</text>
</g>
<!-- 6&#45;&gt;4 -->
<g id="edge7" class="edge"><title>6&#45;&gt;4</title>
<path fill="none" stroke="grey" stroke-width="2" d="M107.464,-287.697C107.243,-279.983 106.978,-270.712 106.733,-262.112"/>
<polygon fill="grey" stroke="grey" stroke-width="2" points="110.231,-262 106.447,-252.104 103.234,-262.2 110.231,-262"/>
</g>
</g>
</svg>
