<?xml version="1.0" encoding="UTF-8" standalone="no"?>
<!DOCTYPE svg PUBLIC "-//W3C//DTD SVG 1.1//EN"
 "http://www.w3.org/Graphics/SVG/1.1/DTD/svg11.dtd">
<!-- Generated by graphviz version 2.38.0 (20140413.2041)
 -->
<!-- Title: snakemake_dag Pages: 1 -->
<svg width="225pt" height="332pt"
 viewBox="0.00 0.00 225.47 332.00" xmlns="http://www.w3.org/2000/svg" xmlns:xlink="http://www.w3.org/1999/xlink">
<g id="graph0" class="graph" transform="scale(1 1) rotate(0) translate(4 328)">
<title>snakemake_dag</title>
<polygon fill="white" stroke="none" points="-4,4 -4,-328 221.465,-328 221.465,4 -4,4"/>
<!-- 0 -->
<g id="node1" class="node"><title>0</title>
<path fill="none" stroke="#d85656" stroke-width="2" stroke-dasharray="5,2" d="M122.958,-36C122.958,-36 92.958,-36 92.958,-36 86.958,-36 80.958,-30 80.958,-24 80.958,-24 80.958,-12 80.958,-12 80.958,-6 86.958,-0 92.958,-0 92.958,-0 122.958,-0 122.958,-0 128.958,-0 134.958,-6 134.958,-12 134.958,-12 134.958,-24 134.958,-24 134.958,-30 128.958,-36 122.958,-36"/>
<text text-anchor="middle" x="107.958" y="-15" font-family="sans" font-size="10.00">all</text>
</g>
<!-- 1 -->
<g id="node2" class="node"><title>1</title>
<path fill="none" stroke="#88d856" stroke-width="2" stroke-dasharray="5,2" d="M122.958,-180C122.958,-180 92.958,-180 92.958,-180 86.958,-180 80.958,-174 80.958,-168 80.958,-168 80.958,-156 80.958,-156 80.958,-150 86.958,-144 92.958,-144 92.958,-144 122.958,-144 122.958,-144 128.958,-144 134.958,-150 134.958,-156 134.958,-156 134.958,-168 134.958,-168 134.958,-174 128.958,-180 122.958,-180"/>
<text text-anchor="middle" x="107.958" y="-159" font-family="sans" font-size="10.00">call</text>
</g>
<!-- 1&#45;&gt;0 -->
<g id="edge1" class="edge"><title>1&#45;&gt;0</title>
<path fill="none" stroke="grey" stroke-width="2" d="M104.71,-143.888C102.912,-133.542 100.863,-120.063 99.958,-108 98.7606,-92.0449 98.7606,-87.9551 99.958,-72 100.595,-63.5179 101.796,-54.3361 103.079,-46.0356"/>
<polygon fill="grey" stroke="grey" stroke-width="2" points="106.542,-46.5472 104.71,-36.1119 99.6343,-45.412 106.542,-46.5472"/>
</g>
<!-- 2 -->
<g id="node3" class="node"><title>2</title>
<path fill="none" stroke="#56c1d8" stroke-width="2" stroke-dasharray="5,2" d="M150.958,-108C150.958,-108 120.958,-108 120.958,-108 114.958,-108 108.958,-102 108.958,-96 108.958,-96 108.958,-84 108.958,-84 108.958,-78 114.958,-72 120.958,-72 120.958,-72 150.958,-72 150.958,-72 156.958,-72 162.958,-78 162.958,-84 162.958,-84 162.958,-96 162.958,-96 162.958,-102 156.958,-108 150.958,-108"/>
<text text-anchor="middle" x="135.958" y="-87" font-family="sans" font-size="10.00">stats</text>
</g>
<!-- 1&#45;&gt;2 -->
<g id="edge6" class="edge"><title>1&#45;&gt;2</title>
<path fill="none" stroke="grey" stroke-width="2" d="M114.879,-143.697C118.033,-135.813 121.836,-126.304 125.339,-117.546"/>
<polygon fill="grey" stroke="grey" stroke-width="2" points="128.652,-118.689 129.116,-108.104 122.153,-116.089 128.652,-118.689"/>
</g>
<!-- 2&#45;&gt;0 -->
<g id="edge2" class="edge"><title>2&#45;&gt;0</title>
<path fill="none" stroke="grey" stroke-width="2" d="M129.037,-71.6966C125.883,-63.8132 122.08,-54.3042 118.577,-45.5464"/>
<polygon fill="grey" stroke="grey" stroke-width="2" points="121.763,-44.0892 114.8,-36.1043 115.264,-46.689 121.763,-44.0892"/>
</g>
<!-- 3 -->
<g id="node4" class="node"><title>3</title>
<path fill="none" stroke="#d8bc56" stroke-width="2" stroke-dasharray="5,2" d="M47.958,-252C47.958,-252 17.958,-252 17.958,-252 11.958,-252 5.95801,-246 5.95801,-240 5.95801,-240 5.95801,-228 5.95801,-228 5.95801,-222 11.958,-216 17.958,-216 17.958,-216 47.958,-216 47.958,-216 53.958,-216 59.958,-222 59.958,-228 59.958,-228 59.958,-240 59.958,-240 59.958,-246 53.958,-252 47.958,-252"/>
<text text-anchor="middle" x="32.958" y="-231" font-family="sans" font-size="10.00">sort</text>
</g>
<!-- 3&#45;&gt;1 -->
<g id="edge3" class="edge"><title>3&#45;&gt;1</title>
<path fill="none" stroke="grey" stroke-width="2" d="M51.4973,-215.697C60.7613,-207.05 72.1203,-196.449 82.2147,-187.027"/>
<polygon fill="grey" stroke="grey" stroke-width="2" points="84.7095,-189.486 89.6319,-180.104 79.9332,-184.369 84.7095,-189.486"/>
</g>
<!-- 4 -->
<g id="node5" class="node"><title>4</title>
<path fill="none" stroke="#d8bc56" stroke-width="2" stroke-dasharray="5,2" d="M122.958,-252C122.958,-252 92.958,-252 92.958,-252 86.958,-252 80.958,-246 80.958,-240 80.958,-240 80.958,-228 80.958,-228 80.958,-222 86.958,-216 92.958,-216 92.958,-216 122.958,-216 122.958,-216 128.958,-216 134.958,-222 134.958,-228 134.958,-228 134.958,-240 134.958,-240 134.958,-246 128.958,-252 122.958,-252"/>
<text text-anchor="middle" x="107.958" y="-231" font-family="sans" font-size="10.00">sort</text>
</g>
<!-- 4&#45;&gt;1 -->
<g id="edge4" class="edge"><title>4&#45;&gt;1</title>
<path fill="none" stroke="grey" stroke-width="2" d="M107.958,-215.697C107.958,-207.983 107.958,-198.712 107.958,-190.112"/>
<polygon fill="grey" stroke="grey" stroke-width="2" points="111.458,-190.104 107.958,-180.104 104.458,-190.104 111.458,-190.104"/>
</g>
<!-- 5 -->
<g id="node6" class="node"><title>5</title>
<path fill="none" stroke="#d8bc56" stroke-width="2" stroke-dasharray="5,2" d="M197.958,-252C197.958,-252 167.958,-252 167.958,-252 161.958,-252 155.958,-246 155.958,-240 155.958,-240 155.958,-228 155.958,-228 155.958,-222 161.958,-216 167.958,-216 167.958,-216 197.958,-216 197.958,-216 203.958,-216 209.958,-222 209.958,-228 209.958,-228 209.958,-240 209.958,-240 209.958,-246 203.958,-252 197.958,-252"/>
<text text-anchor="middle" x="182.958" y="-231" font-family="sans" font-size="10.00">sort</text>
</g>
<!-- 5&#45;&gt;1 -->
<g id="edge5" class="edge"><title>5&#45;&gt;1</title>
<path fill="none" stroke="grey" stroke-width="2" d="M164.419,-215.697C155.155,-207.05 143.796,-196.449 133.701,-187.027"/>
<polygon fill="grey" stroke="grey" stroke-width="2" points="135.983,-184.369 126.284,-180.104 131.207,-189.486 135.983,-184.369"/>
</g>
<!-- 6 -->
<g id="node7" class="node"><title>6</title>
<path fill="none" stroke="#56d88a" stroke-width="2" stroke-dasharray="5,2" d="M47.8741,-324C47.8741,-324 12.0419,-324 12.0419,-324 6.04193,-324 0.0419334,-318 0.0419334,-312 0.0419334,-312 0.0419334,-300 0.0419334,-300 0.0419334,-294 6.04193,-288 12.0419,-288 12.0419,-288 47.8741,-288 47.8741,-288 53.8741,-288 59.8741,-294 59.8741,-300 59.8741,-300 59.8741,-312 59.8741,-312 59.8741,-318 53.8741,-324 47.8741,-324"/>
<text text-anchor="middle" x="29.958" y="-308" font-family="sans" font-size="10.00">bwa</text>
<text text-anchor="middle" x="29.958" y="-298" font-family="sans" font-size="10.00">sample: A</text>
</g>
<!-- 6&#45;&gt;3 -->
<g id="edge7" class="edge"><title>6&#45;&gt;3</title>
<path fill="none" stroke="grey" stroke-width="2" d="M30.6996,-287.697C31.0302,-279.983 31.4275,-270.712 31.796,-262.112"/>
<polygon fill="grey" stroke="grey" stroke-width="2" points="35.2935,-262.245 32.225,-252.104 28.2999,-261.945 35.2935,-262.245"/>
</g>
<!-- 7 -->
<g id="node8" class="node"><title>7</title>
<path fill="none" stroke="#56d88a" stroke-width="2" stroke-dasharray="5,2" d="M126.423,-324C126.423,-324 89.4933,-324 89.4933,-324 83.4933,-324 77.4933,-318 77.4933,-312 77.4933,-312 77.4933,-300 77.4933,-300 77.4933,-294 83.4933,-288 89.4933,-288 89.4933,-288 126.423,-288 126.423,-288 132.423,-288 138.423,-294 138.423,-300 138.423,-300 138.423,-312 138.423,-312 138.423,-318 132.423,-324 126.423,-324"/>
<text text-anchor="middle" x="107.958" y="-308" font-family="sans" font-size="10.00">bwa</text>
<text text-anchor="middle" x="107.958" y="-298" font-family="sans" font-size="10.00">sample: B</text>
</g>
<!-- 7&#45;&gt;4 -->
<g id="edge8" class="edge"><title>7&#45;&gt;4</title>
<path fill="none" stroke="grey" stroke-width="2" d="M107.958,-287.697C107.958,-279.983 107.958,-270.712 107.958,-262.112"/>
<polygon fill="grey" stroke="grey" stroke-width="2" points="111.458,-262.104 107.958,-252.104 104.458,-262.104 111.458,-262.104"/>
</g>
<!-- 8 -->
<g id="node9" class="node"><title>8</title>
<path fill="none" stroke="#56d88a" stroke-width="2" stroke-dasharray="5,2" d="M205.473,-324C205.473,-324 168.443,-324 168.443,-324 162.443,-324 156.443,-318 156.443,-312 156.443,-312 156.443,-300 156.443,-300 156.443,-294 162.443,-288 168.443,-288 168.443,-288 205.473,-288 205.473,-288 211.473,-288 217.473,-294 217.473,-300 217.473,-300 217.473,-312 217.473,-312 217.473,-318 211.473,-324 205.473,-324"/>
<text text-anchor="middle" x="186.958" y="-308" font-family="sans" font-size="10.00">bwa</text>
<text text-anchor="middle" x="186.958" y="-298" font-family="sans" font-size="10.00">sample: C</text>
</g>
<!-- 8&#45;&gt;5 -->
<g id="edge9" class="edge"><title>8&#45;&gt;5</title>
<path fill="none" stroke="grey" stroke-width="2" d="M185.969,-287.697C185.528,-279.983 184.999,-270.712 184.507,-262.112"/>
<polygon fill="grey" stroke="grey" stroke-width="2" points="188,-261.888 183.935,-252.104 181.012,-262.288 188,-261.888"/>
</g>
</g>
</svg>
